<svg id="Layer_1" data-name="Layer 1" xmlns="http://www.w3.org/2000/svg" viewBox="0 0 484.54 216"><defs><style>.cls-1{fill:#fff;}.cls-2{fill:#f8941f;}.cls-3{fill:none;}.cls-4{fill:#d2232a;}</style></defs><title>header-logo</title><g id="g10"><g id="g12"><path id="path28" class="cls-1" d="M136.19,60.12c-17.3,9.2-41.93,13.71-60.38,15.9-14.76,1.76-25.59,2-25.59,2L39.78,42.45,152,7,164.11,37.9s3.23,5.68-27.91,22.23" transform="translate(-12.23 -1)"/><path id="path30" class="cls-1" d="M39.79,41.53c0-10.84,31.1-15.76,60.64-32.76C126.23-6.08,151.76,4,153,8.9s-15,16-44,24.53S39.79,45.16,39.79,41.53" transform="translate(-12.23 -1)"/><path id="path42" class="cls-2" d="M134.57,116.86c-11.46.81-20.36-2.21-33.09,2.39-4.69,1.7-13.85,6.59-20.07,8.26,0,0,6.68-7.14,9.57-8.73,7.9-4.33,17.76-7.35,25.41-6.81,6.85,0.5,15.82.26,18.17,4.89" transform="translate(-12.23 -1)"/><path id="path44" d="M134.57,116.86c-11.46.81-20.36-2.21-33.09,2.39-4.69,1.7-13.85,6.59-20.07,8.26,0,0,6.68-7.14,9.57-8.73,7.9-4.33,17.76-7.35,25.41-6.81,6.85,0.5,15.82.26,18.17,4.89" transform="translate(-12.23 -1)"/><path id="path46" d="M77.92,129.62l2.68-2.86c0.27-.29,6.82-7.29,9.85-8.94,8.75-4.79,18.59-7.49,26-7,0.95,0.06,1.93.13,2.94,0.17,6.48,0.35,13.84.75,16.15,5.31l0.77,1.5-1.69.13a92.75,92.75,0,0,1-11.05,0c-2.09-.09-4.16-0.19-6.27-0.19a43.67,43.67,0,0,0-15.45,2.56c-1.74.63-4.19,1.75-6.79,2.94a97.5,97.5,0,0,1-13.38,5.36l-3.79,1" transform="translate(-12.23 -1)"/><path id="path48" class="cls-2" d="M216,97.41c-7.69,1.19-13.35-1.92-21.48,1.17-6.14,2.35-10.94,7.29-17.09,10.45-2.15-5,4.81-9.66,9.36-12.17,9.28-5.14,25.18-7.1,29.2.55" transform="translate(-12.23 -1)"/><path id="path50" d="M176.92,110.56l-0.48-1.1c-1.3-3-.64-7.79,9.84-13.59a39.62,39.62,0,0,1,18-4.67c6.26,0,10.77,2,12.7,5.69l0.73,1.39-1.55.24a39.5,39.5,0,0,1-9,0c-1.59-.14-3.09-0.26-4.65-0.26a20.54,20.54,0,0,0-7.59,1.35,43.51,43.51,0,0,0-9.34,5.54A65.2,65.2,0,0,1,178,110l-1,.52" transform="translate(-12.23 -1)"/><path id="path52" class="cls-3" d="M164.92,197.48c-11.82,5-15.29,6.54-31.81,5.75-14.48-.69-31.8-12.86-36.86-19.56,2.3,0.11,16.48-.4,32.06-1.49,20.61-1.31,34.44-5.15,36.71-6.44-3.23-2.9-6.18-10.42-6.18-10.42" transform="translate(-12.23 -1)"/><path id="path56" d="M150.84,179.67c0.45,5.65,1.18,12.45,2.46,21.13" transform="translate(-12.23 -1)"/><path d="M245.71,101.67c-10.19,1.61-21,4.56-31.08,6-0.65-2.94-1.79-6.08-2.54-9.06a20.28,20.28,0,0,0,5.61-.35c-0.9-4-6-3.75-7.38-5.71-0.76-1.13-1-3.7-1.49-5.38-1.48-5.56-2.17-12.77-3-17.69,6.06-5.44,12.26-9.3,16-16,0.9-1.6,1.66-3.69,2.55-5.53,2.63-5.41,4.77-12,1.58-19.5-14.2-.2-29.34,3.39-44.88,7-15.34,3.51-31.38,6.8-46.68,10.74C102.88,54.4,68,68.46,40.62,84.77c-4.35-6.92-7.79-15.94-14.47-17.51,3.16,4,7.72,9,8.49,15.34-7.11-3.74-14.49-8.67-22.4-9.48h0c7,3.77,15.72,6.58,22.06,13.3,5.41,5.75,4.94,14.83,5.19,21.56a321.34,321.34,0,0,1-.57,36.14c-0.15,2-.24,6.33-1,7-2.29,1.94-6.5.16-8.35,2.25-1.3,6.16,6.4,4.1,9.44,5.74-0.68,2.6.14,5.86-1.32,8.11-5.56-.5-16.75-2.52-20.33,4.7a11,11,0,0,0-.25,7.7c2.45,8.3,11,14.65,17.86,14.13,1.9-.15,4-1.25,5.65-1.81-0.19,2.44,2,4.17,2.78,6.51,34.31,4.39,68,14.76,103.54,18,6.15,0.56,12.9,1.52,19.63-1.76,14.8-7.25,24.24-18.33,32.81-29.31s15.71-22.8,17.14-36.3C236.26,137.63,246.06,121.87,245.71,101.67Zm-195-5.75c0.59-.39.82,0,1.05,0.45a65,65,0,0,0,13.54,3.4c5.64,1,58.07-12.35,89.82-17.84,15.24-2.64,30.8-6,45.9-11.92,1.66,11.58,6.81,24.67,9.11,36.55C154.86,120.88,101,131.93,45.43,146.85,56.38,133.88,58.87,117.22,50.73,95.92Zm58.59,72.29c-26.25,8.58-43,5-55.5-13.29,30.19-8,61.06-14.3,89.59-21.65-2.16,27.46-27.89,32.06-34.09,34.94h0Zm73.63,29.15c-5.63,5.26-10.89,11-19.66,13.69-5,1.52-11,1.3-16.21,1-15.64-.8-29.26-3.76-44.15-6.88-16.29-3.41-33.11-7.63-50.45-10.35-1.85-.29-6.53-0.64-7.15-1.5-1.54-2.14,1.05-5.12-.81-7.27-9.59,7.25-23.49,2.31-23.39-9.9,11.91-4.34,19.71.75,29.47,1.36,2.22-3.66-2.7-8.51-5.76-8.41h0c0.26-4,1-7.8.07-12.34,0.14-.09.2,0,0.25,0.11,7.71,6.23,12.78,14.56,21.24,18.54,15.3,7.19,39.14,5,60.13-6.79a76.31,76.31,0,0,0,12.9-9c3.61-3.19,6.57-8,8.52-11.61,3.26-6,2-12.83,7-18.3,6.45,6.48,8.46,21.15,14,29.39-9.85,3-19.49,5.51-29.21,8.2,0.32,3.54,3.4,3.69,5.32,4.67a57.67,57.67,0,0,1,11.45-4.69,46.87,46.87,0,0,0,3.69,7.08c-5.35,1.52-16.51,3.9-32.1,4.89s-29.57,1.59-31.73,1.48l-6.2-.29,3.74,5c5.16,6.83,23.11,20,39,20.71,2.73,0.13,5.1.2,7.24,0.2h0c11.26,0,15.64-1.85,25.52-6l-0.82-2.81L163.46,195c-3,1.26-5.4,2.29-7.63,3.1-0.81-5.71-1.44-11-1.9-16.19,6.61-1.34,11-2.73,12.51-3.56l3.51-2-3-2.7c-1.65-1.49-3.59-5.14-4.8-7.85,4.1-1.09,8.21-2.14,12.26-3.63,0.4-4.16-3.19-9.92-5.31-13.51,1.59,0.3,2.84,1.3,4.27,2,10.09,5,22.43,6.64,37.16,1.61C207.41,169.32,197.14,184.08,182.94,197.36Zm-32.74,2.31c-4.23.89-8.95,1-17,.65-10.5-.5-23.05-7.79-30.19-13.86,6.29-.23,15.84-0.69,25.44-1.36,7.44-.48,14.1-1.29,19.71-2.2C148.69,188.21,149.36,193.75,150.21,199.67Zm76-65.81c-5.54,7.39-16.11,13.46-28.1,14.29-3.75.26-14.63-.36-18.7-1.4a29.37,29.37,0,0,1-10.59-5.91c-3.05-2.83-4.19-7.7-6-12.63a1.47,1.47,0,0,1,0-.61c24.7-6,48.41-9.69,73.52-16.56C236.23,119.81,233.57,124.48,226.23,133.86Z" transform="translate(-12.23 -1)"/><path id="path60" d="M121.17,144.28a10.42,10.42,0,1,1-13.66-6.3,10.63,10.63,0,0,1,13.66,6.3" transform="translate(-12.23 -1)"/><path id="path62" d="M197,124.63a10.42,10.42,0,1,1-13.66-6.31A10.63,10.63,0,0,1,197,124.63" transform="translate(-12.23 -1)"/><path id="path64" class="cls-1" d="M126.14,85.36c30.2,8.42,42.24,8.3,68.13-8.69,22.92-15,16.69-36,16.69-36l-48.55-3.83L108,49.86,71.19,64.58s39.8,16.55,55,20.78" transform="translate(-12.23 -1)"/><path id="path66" class="cls-4" d="M146.56,44.28l-8-1-5.32,6-1.56-7.9-7.4-3.19,7-3.94,0.75-8L138,31.82,145.82,30l-3.37,7.31,4.11,6.93" transform="translate(-12.23 -1)"/><path id="path70" d="M292.81,53s-4.14,60.61-8.52,55.83c-5.1,6.69-2.8.8-2.8,0.8l6.4-58.75L292.81,53" transform="translate(-12.23 -1)"/><path id="path72" d="M342.58,140c3.4-1.2,2,3.2,2,3.2-19.85,17,14.59,14.79,14.59,14.79s3.8,0.2,1.4,2.4-12.65,1.33-12.65,1.33-2.6,8.73,1.06,10.39c3.23,1.46,18.44.56,29.23,0,11.46-.64,28.61-4.92,34.71-7.86-6.77,24.84-22,30-34.71,32.5-11.8,2.26-26.89,1.61-30.09-.44a4.33,4.33,0,0,1-1.58-6.13s2,2.46,12.83,3.52c3.64,0.36,10-.37,17.88-1.92,7.4-2,23.17-5.64,27.46-19.88a251.36,251.36,0,0,1-28.15,4.74c-13.06,1.06-30,1-33.79-1.46-1.4-.94.92-14.25,0.92-14.25S323,155.11,342.58,140" transform="translate(-12.23 -1)"/><path id="path74" d="M310.12,122.91a10.67,10.67,0,1,1-10.66-10.25,10.47,10.47,0,0,1,10.66,10.25" transform="translate(-12.23 -1)"/><path id="path76" d="M295.39,93.31c-2.73,1.6,23.9-11.92,39.52-8.84,4.26-2.52,2.51-3.55-.59-4.49s-24.86-1.64-39.67,12c-6.88,6.32.74,1.32,0.74,1.32" transform="translate(-12.23 -1)"/><path id="path78" d="M417.16,95.52c2.7,1.64-22.11-10.75-37.92-8.77a5.65,5.65,0,0,1-3.89-1.3c-1.73-1.65.54-3.08,3.06-3.8,3.11-.89,24.89-1.29,39.5,12.56,6.78,6.42-.75,1.31-0.75,1.31" transform="translate(-12.23 -1)"/><path id="path80" d="M354,175.53s-4-1.86-3.15,0c2.67,7.46.7,20,.7,20l2.8,1.2s2.8-21.19-.35-21.19" transform="translate(-12.23 -1)"/><path id="path82" d="M368.17,173.73c-17.67,8.39-12.8,22.39-12.8,22.39l2.44,1.2s-3-13.59,14-22c2.45-1.6-.6-1.2-3.65-1.6" transform="translate(-12.23 -1)"/><path id="path84" d="M274,107.72c-7-2.31-8.33-6.21-11.2-11.69s0.33,9,5.13,12.8S281,110,274,107.72" transform="translate(-12.23 -1)"/><path id="path86" d="M282.26,107.72c-7-2.31-8.33-6.21-11.2-11.69s0.33,9,5.13,12.8,13.11,1.21,6.08-1.11" transform="translate(-12.23 -1)"/><path id="path88" d="M288.64,108.26c-7-2.31-8.33-6.21-11.2-11.69s0.33,9,5.13,12.8,13.13,1.2,6.08-1.11" transform="translate(-12.23 -1)"/><path id="path90" d="M258.29,110.4s-2.4,31-.94,31.79,83,3.2,84.25,2.4,1.58-29.51,1.58-29.51h-4.91s-0.71,23.71-1.65,24.51-73.94-1.6-75-2.4,1.06-26.38,1.06-26.38l-4.39-.4" transform="translate(-12.23 -1)"/><path id="path92" d="M260.56,108.4c1.35-.6,28.2.11,62.31,1.29v-0.06c51,1.54,118.34,3.89,120,4.79,3.67,2,1.59,6.3,1.59,6.3l-61.92-3.46L256.11,113.6a7.77,7.77,0,0,1,4.45-5.2" transform="translate(-12.23 -1)"/><path id="path94" d="M387.17,125.65a10.66,10.66,0,1,0,11.34-9.49,10.47,10.47,0,0,0-11.34,9.49" transform="translate(-12.23 -1)"/><path id="path96" d="M428.86,113.23c7.19-1.83,9-5.88,12.28-11.13s-0.94,9-6,12.41-13.46.54-6.28-1.29" transform="translate(-12.23 -1)"/><path id="path98" d="M420.91,112.42c7.19-1.83,8.74-5.62,12-10.89s-0.94,9-6,12.41-13.17.3-6-1.52" transform="translate(-12.23 -1)"/><path id="path100" d="M414,112.76c7.19-1.83,9.23-5.87,12.48-11.14s-0.94,9-6,12.41-13.66.55-6.48-1.27" transform="translate(-12.23 -1)"/><path id="path102" d="M446.47,118.08s-1.37,29.74-2.89,30.42-84.8-2.63-85.94-3.51,1.63-29.76,1.63-29.76l4.26,0.3s-1.77,23.65-.9,24.51,75.11,3.89,76.23,3.16,0.76-26.39.76-26.39l6.85,1.26" transform="translate(-12.23 -1)"/><path id="path104" d="M469.89,154c-3.47-7-13.84-5.24-19.25-4.74l-6.22,1.64c-2.94.49-7.2,6.73-5.31,7.46,7.51-1.29,7.74-5.66,23-2.46,1,0.2,3.91,1.15,4.2,2.27,3,11.5-10.56,17.38-19.89,10.34,0,0-1.61-.29-1.19,1.85a5.43,5.43,0,0,0,2.34,3.44c0.5,2.88,1,6.54-.79,7.54-3.42,1.9-51.83,21.45-62.89,24.4-9,2.41-15.71,4.06-19.9,3.67-25.31-.58-64.89-22.58-76.88-66.81-3.8-6.8-6.13,0-6.13,0s19.65,65.21,83,71.21c5.77-.19,11.24-1,19.9-3.84,17.76-5.8,67.46-25.64,67.83-27.11a29.47,29.47,0,0,0,.6-7.66l0.5,0c6.66,0.16,15-5.66,17.36-13.73a10.71,10.71,0,0,0-.25-7.5" transform="translate(-12.23 -1)"/><path id="path106" d="M442.91,114.4l16.39,10.35-0.81,4.3-15.29-5.65-0.29-9" transform="translate(-12.23 -1)"/><path id="path108" d="M485.28,107.83c4.08-24.42.17-43.91-19.35-42,1.61-.6-11.81-22.13-14-18.44-7.56-17.44-40.39-27.14-89.5-31-24.71-2-49-.78-67,4.89-29.84,13.33-32.64,28.65-33,36.24-0.25,4.77,5.83,3.85,38.88,5.31,16,0.71,99.34,4.17,131.26,6,0,0-1.69,15.3,15.6,27.49,4.1,30.23,2.75,52.2,1.75,57.69,9-.4,18.08-0.33,18.45,5.38,0.35,5.31-6.08,16.7-17.44,12.85,10,28.41,25.19,44.75,45.85,6-36.9,10-19.85-20.17-11.49-70.34" transform="translate(-12.23 -1)"/><path id="path110" class="cls-1" d="M454.63,54.61c-2-3.74-2.71-4.64-4.24-5.11s-3.34.6-6.28,2.2c-2.22,1.21-4.39,2.38-5,3.6-0.76,1.6,1.2,4.48,2.51,6.9,2.1,3.88,3.2,5.77,6.84,4.6,1.17-.38,3.35-1.35,3.35-1.35a42.67,42.67,0,0,0,4.36-3.09c1.38-1.59,1-3-1.57-7.75" transform="translate(-12.23 -1)"/><path id="path112" class="cls-1" d="M469.18,28.55s0.55-.72-5.53,4.59a54.89,54.89,0,0,0-11.54,14.3c1.86,0.92,3,2.63,4.83,6.06,2.36,4.45,4.08,7.66,1.41,10.7a5.77,5.77,0,0,1-.55.49,37.56,37.56,0,0,0,14.41,6.21c6.47,1.09,17-4.75,17-4.75s1.38-7.85-2.16-20.93C484.44,35.41,472,25.8,472,25.8" transform="translate(-12.23 -1)"/><path id="path114" class="cls-1" d="M439.27,63.65l-0.71-1.26c-1.35-2.36-2.62-4.77-2.27-7a54.89,54.89,0,0,0-19.8,2.76,60.93,60.93,0,0,0-13.1,6.66,151.81,151.81,0,0,0,11.42,19,33,33,0,0,0,19.38,13.59s9-7.29,11.22-13.49C447,79.46,447.19,74.1,447,70c-4.11.36-5.9-2.91-7.76-6.38" transform="translate(-12.23 -1)"/></g></g></svg>