<svg id="Layer_1" data-name="Layer 1" xmlns="http://www.w3.org/2000/svg" viewBox="0 0 85.04 85.04"><defs><style>.cls-1{fill:#fff;fill-rule:evenodd;}</style></defs><title>Untitled-1</title><path class="cls-1" d="M64.66,38.37A1.67,1.67,0,0,0,64.58,36L51.3,23.55a1.64,1.64,0,0,0-2.33.08L46,26.81a1.67,1.67,0,0,0,.08,2.35L59.39,41.63a1.64,1.64,0,0,0,2.33-.08Zm-40.78,15a3.14,3.14,0,0,1,4.62.48,18.07,18.07,0,0,0,28,.06,3.14,3.14,0,0,1,4.62-.46c1.29,1.06,2.48,2,.46,4.62a23.82,23.82,0,0,1-19.08,9A23.7,23.7,0,0,1,23.39,58C21.37,55.31,22.58,54.46,23.88,53.4ZM19,38.37A1.67,1.67,0,0,1,19.07,36L32.34,23.56a1.64,1.64,0,0,1,2.33.08l2.94,3.18a1.67,1.67,0,0,1-.08,2.35L24.27,41.63a1.64,1.64,0,0,1-2.33-.08ZM8.13,42.52A34.39,34.39,0,1,0,42.52,8.13,34.39,34.39,0,0,0,8.13,42.52Zm72.51,0A38.12,38.12,0,1,1,42.52,4.4,38.12,38.12,0,0,1,80.64,42.52ZM0,42.52A42.52,42.52,0,1,1,42.52,85,42.52,42.52,0,0,1,0,42.52Z" transform="translate(0 0)"/></svg>