<svg id="svg" version="1.1" xmlns="http://www.w3.org/2000/svg" xmlns:xlink="http://www.w3.org/1999/xlink" width="400" height="400" viewBox="0, 0, 400,400"><g id="svgg"><path id="path0" d="M185.600 89.852 C 183.730 90.163,180.490 90.701,178.400 91.047 C 176.310 91.394,173.874 91.930,172.987 92.238 C 172.099 92.547,171.043 92.800,170.640 92.800 C 167.131 92.800,149.878 100.058,141.591 105.021 C 120.593 117.596,102.268 139.330,94.639 160.708 C 92.776 165.927,91.650 169.428,91.005 172.000 C 90.647 173.430,90.108 175.500,89.807 176.600 C 88.828 180.183,88.157 185.610,87.259 197.200 C 86.348 208.964,89.289 227.455,94.002 239.600 C 94.471 240.810,95.092 242.430,95.381 243.200 C 103.276 264.236,123.371 286.968,144.200 298.424 C 149.650 301.422,156.831 304.800,157.754 304.800 C 158.084 304.800,158.455 304.966,158.581 305.169 C 158.706 305.372,159.359 305.659,160.032 305.807 C 160.704 305.955,161.737 306.327,162.327 306.635 C 162.917 306.943,163.709 307.196,164.086 307.198 C 164.464 307.199,165.364 307.453,166.086 307.763 C 166.809 308.072,168.480 308.595,169.800 308.924 C 171.120 309.253,173.010 309.733,174.000 309.991 C 174.990 310.249,176.790 310.602,178.000 310.776 C 179.210 310.951,181.190 311.293,182.400 311.536 C 189.346 312.934,209.316 312.928,215.730 311.527 C 216.792 311.295,218.682 310.956,219.930 310.773 C 225.102 310.014,238.278 306.214,239.380 305.162 C 239.589 304.963,240.004 304.800,240.302 304.800 C 241.186 304.800,248.909 301.146,254.200 298.224 C 268.017 290.592,282.730 277.005,291.473 263.800 C 294.717 258.900,295.600 257.452,295.600 257.028 C 295.600 256.664,288.720 252.308,286.800 251.457 C 286.470 251.311,285.660 250.846,285.000 250.424 C 284.340 250.001,282.990 249.214,282.000 248.675 C 280.129 247.654,270.251 241.877,269.200 241.188 C 268.870 240.972,268.330 240.670,268.000 240.517 C 267.670 240.364,264.099 238.295,260.063 235.919 C 256.028 233.544,252.656 231.600,252.569 231.600 C 252.483 231.600,251.534 231.060,250.462 230.400 C 247.861 228.800,248.003 228.739,245.569 232.485 C 239.864 241.266,228.148 250.385,218.200 253.787 C 217.100 254.163,215.893 254.632,215.517 254.828 C 215.142 255.024,214.062 255.298,213.117 255.436 C 212.173 255.574,210.410 255.964,209.200 256.302 C 205.935 257.216,192.353 257.170,188.344 256.232 C 170.334 252.015,157.281 242.213,149.371 226.965 C 147.575 223.504,147.133 222.440,145.646 218.000 C 136.261 189.980,151.939 158.125,180.000 148.199 C 188.221 145.291,198.166 144.118,205.200 145.226 C 206.630 145.451,208.520 145.734,209.400 145.855 C 221.680 147.538,237.888 158.042,245.000 168.927 C 247.211 172.311,247.628 172.493,249.908 171.067 C 250.729 170.554,252.400 169.589,253.622 168.923 C 254.845 168.257,258.175 166.362,261.022 164.713 C 273.451 157.513,277.891 154.950,279.234 154.200 C 280.451 153.522,290.129 147.941,293.478 145.987 C 295.892 144.579,295.659 143.859,290.382 136.400 C 281.247 123.487,269.655 112.782,256.225 104.857 C 251.501 102.069,243.643 98.000,242.983 98.000 C 242.839 98.000,242.154 97.752,241.460 97.448 C 239.008 96.373,236.171 95.324,233.800 94.615 C 232.480 94.220,230.950 93.713,230.400 93.489 C 229.850 93.264,228.680 92.942,227.800 92.772 C 226.920 92.602,225.480 92.284,224.600 92.064 C 213.618 89.327,195.087 88.276,185.600 89.852 M299.398 164.900 C 299.211 165.431,298.674 168.479,297.808 173.924 C 297.057 178.648,296.921 178.751,291.249 178.888 L 286.600 179.000 286.600 183.000 L 286.600 187.000 290.000 187.100 C 295.973 187.277,295.630 186.672,294.255 194.600 C 292.525 204.582,292.989 203.940,287.394 204.086 L 283.000 204.200 282.884 207.740 C 282.735 212.267,282.847 212.400,286.800 212.400 C 288.912 212.400,290.045 212.572,290.349 212.939 C 290.816 213.501,290.409 218.141,289.630 221.139 C 289.421 221.943,289.194 223.590,289.125 224.800 L 289.000 227.000 292.764 227.116 C 297.497 227.262,297.751 226.917,298.600 219.200 C 298.758 217.770,299.182 215.700,299.543 214.600 L 300.200 212.600 307.600 212.600 L 315.000 212.600 315.141 214.000 C 315.264 215.227,314.772 218.676,313.601 224.800 C 313.143 227.191,313.248 227.249,317.818 227.115 L 321.766 227.000 322.025 225.600 C 322.457 223.270,323.582 216.692,323.804 215.200 C 324.178 212.678,324.303 212.619,329.684 212.400 L 334.600 212.200 334.600 208.200 L 334.600 204.200 330.822 204.084 C 325.629 203.924,325.513 203.781,326.571 198.857 C 326.885 197.396,327.455 194.400,327.838 192.200 C 328.744 186.997,328.456 187.246,333.738 187.113 L 338.200 187.000 338.200 183.000 L 338.200 179.000 334.706 178.885 C 329.864 178.724,330.004 179.309,331.999 167.639 C 332.555 164.388,332.500 164.345,327.964 164.484 L 324.200 164.600 323.521 167.600 C 323.148 169.250,322.544 172.220,322.180 174.200 C 321.277 179.111,321.841 178.800,313.831 178.800 C 305.283 178.800,305.106 178.655,306.570 172.858 C 306.884 171.616,307.265 169.205,307.417 167.500 L 307.694 164.400 303.634 164.400 C 300.748 164.400,299.524 164.544,299.398 164.900 M318.974 187.190 C 320.109 187.622,320.216 188.243,319.611 190.894 C 319.397 191.832,319.031 193.860,318.798 195.400 C 317.349 204.959,318.401 204.041,309.044 203.908 L 301.400 203.800 301.446 202.600 C 301.471 201.940,301.792 199.690,302.159 197.600 C 302.526 195.510,303.051 192.453,303.325 190.806 C 303.746 188.282,303.979 187.733,304.812 187.312 C 306.015 186.703,317.434 186.605,318.974 187.190 " stroke="none" fill="#fbfbfb" fill-rule="evenodd"></path><path id="path1" d="M196.880 9.280 C 196.616 9.544,196.400 9.612,196.400 9.431 C 196.400 9.250,196.126 9.329,195.791 9.607 C 195.457 9.885,193.925 10.151,192.387 10.198 C 190.491 10.256,189.365 10.489,188.888 10.920 C 188.501 11.270,187.829 11.496,187.393 11.422 C 186.957 11.349,186.182 11.551,185.670 11.873 C 185.159 12.194,184.358 12.531,183.890 12.621 C 183.423 12.711,182.885 13.062,182.696 13.401 C 182.506 13.740,182.182 13.912,181.975 13.785 C 181.769 13.657,181.600 13.738,181.600 13.964 C 181.600 14.190,181.353 14.280,181.052 14.164 C 180.750 14.049,180.391 14.246,180.254 14.602 C 180.118 14.959,179.824 15.139,179.603 15.002 C 179.381 14.865,179.200 14.943,179.200 15.176 C 179.200 15.409,178.949 15.600,178.643 15.600 C 178.336 15.600,177.983 15.867,177.858 16.193 C 177.717 16.561,177.371 16.687,176.950 16.525 C 176.492 16.350,176.363 16.416,176.555 16.727 C 176.742 17.030,176.626 17.108,176.221 16.953 C 175.879 16.822,175.600 16.914,175.600 17.157 C 175.600 17.401,175.340 17.600,175.023 17.600 C 174.705 17.600,174.162 18.005,173.815 18.500 C 173.468 18.995,173.098 19.355,172.992 19.300 C 172.413 18.999,171.600 19.277,171.600 19.776 C 171.600 20.093,171.392 20.481,171.138 20.638 C 170.852 20.815,170.785 20.748,170.962 20.462 C 171.416 19.727,170.778 19.923,169.438 20.929 C 168.279 21.799,166.969 22.486,166.316 22.565 C 165.890 22.617,164.387 23.702,163.577 24.543 C 163.183 24.951,162.680 25.173,162.458 25.036 C 162.237 24.899,161.940 24.973,161.800 25.200 C 161.660 25.427,161.396 25.521,161.214 25.409 C 161.033 25.296,160.781 25.474,160.654 25.802 C 160.528 26.131,160.149 26.400,159.813 26.400 C 159.476 26.400,159.200 26.558,159.200 26.751 C 159.200 26.945,158.673 27.321,158.029 27.588 C 157.385 27.855,156.764 28.318,156.649 28.617 C 156.534 28.917,156.079 29.092,155.638 29.007 C 155.119 28.907,154.754 29.116,154.600 29.600 C 154.449 30.077,154.080 30.292,153.581 30.196 C 153.152 30.114,152.800 30.226,152.800 30.447 C 152.800 30.667,152.620 30.736,152.400 30.600 C 152.180 30.464,152.000 30.653,152.000 31.019 C 152.000 31.442,151.784 31.603,151.411 31.459 C 151.086 31.335,150.672 31.499,150.490 31.824 C 150.309 32.149,149.728 32.498,149.200 32.600 C 148.672 32.702,148.085 33.062,147.896 33.401 C 147.706 33.740,147.382 33.912,147.175 33.785 C 146.969 33.657,146.800 33.758,146.800 34.010 C 146.800 34.261,146.575 34.390,146.300 34.296 C 146.025 34.202,145.495 34.474,145.121 34.899 C 144.748 35.325,144.285 35.576,144.093 35.457 C 143.900 35.338,143.453 35.547,143.099 35.920 C 142.020 37.061,141.328 37.537,140.556 37.672 C 139.667 37.826,138.377 38.839,138.603 39.205 C 138.692 39.349,138.511 39.467,138.200 39.467 C 137.889 39.467,137.727 39.319,137.838 39.138 C 137.950 38.957,137.776 38.911,137.452 39.036 C 137.127 39.160,136.759 39.529,136.634 39.856 C 136.508 40.183,136.248 40.353,136.054 40.234 C 135.861 40.114,135.292 40.373,134.790 40.808 C 134.288 41.244,133.635 41.600,133.339 41.600 C 133.042 41.600,132.800 41.870,132.800 42.200 C 132.800 42.530,132.665 42.769,132.500 42.730 C 132.186 42.657,129.946 43.632,129.600 43.992 C 129.490 44.106,129.130 44.200,128.800 44.200 C 128.470 44.200,128.252 44.447,128.316 44.749 C 128.389 45.090,128.208 45.212,127.842 45.071 C 127.517 44.947,126.835 45.164,126.326 45.554 C 125.816 45.945,125.074 46.383,124.675 46.529 C 124.276 46.675,124.050 46.957,124.172 47.155 C 124.445 47.597,123.259 48.155,122.300 48.036 C 121.905 47.987,121.600 48.212,121.600 48.551 C 121.600 48.882,121.392 49.281,121.138 49.438 C 120.852 49.615,120.785 49.548,120.962 49.262 C 121.410 48.537,120.609 48.721,119.491 49.600 C 118.931 50.040,118.277 50.400,118.037 50.400 C 117.797 50.400,117.600 50.660,117.600 50.977 C 117.600 51.337,117.302 51.497,116.806 51.401 C 116.370 51.317,115.866 51.511,115.686 51.832 C 115.507 52.153,114.963 52.492,114.478 52.585 C 113.211 52.829,112.747 53.191,113.059 53.696 C 113.232 53.975,113.098 54.047,112.695 53.892 C 112.345 53.757,111.843 53.907,111.580 54.224 C 111.317 54.541,110.854 54.800,110.551 54.800 C 110.248 54.800,110.000 54.959,110.000 55.154 C 110.000 55.349,109.325 55.828,108.500 56.219 C 107.675 56.609,106.781 57.215,106.513 57.564 C 106.245 57.914,106.020 58.043,106.013 57.851 C 106.006 57.659,105.695 57.749,105.323 58.051 C 104.741 58.524,104.689 58.517,104.953 58.000 C 105.225 57.467,105.200 57.467,104.730 58.000 C 103.923 58.914,102.599 59.880,102.947 59.300 C 103.378 58.582,102.973 58.684,102.157 59.500 C 101.772 59.885,101.264 60.208,101.029 60.218 C 100.793 60.228,100.660 60.498,100.733 60.818 C 100.807 61.138,100.739 61.272,100.583 61.116 C 100.144 60.677,97.933 61.968,98.249 62.479 C 98.415 62.748,98.342 62.811,98.062 62.638 C 97.803 62.478,97.597 62.583,97.594 62.876 C 97.589 63.257,97.482 63.236,97.200 62.800 C 96.909 62.350,96.811 62.333,96.806 62.733 C 96.803 63.027,96.575 63.190,96.300 63.096 C 96.025 63.002,95.504 63.263,95.141 63.676 C 94.779 64.089,94.239 64.376,93.941 64.314 C 93.644 64.251,93.449 64.438,93.510 64.730 C 93.570 65.021,93.452 65.156,93.246 65.028 C 92.688 64.684,91.528 65.236,91.726 65.752 C 91.821 65.998,91.464 66.226,90.932 66.259 C 90.400 66.291,89.658 66.668,89.283 67.096 C 88.907 67.524,88.396 67.805,88.146 67.720 C 87.897 67.634,87.416 67.842,87.077 68.181 C 86.738 68.520,86.042 68.977,85.530 69.197 C 84.370 69.697,83.073 70.502,82.771 70.909 C 82.644 71.080,82.118 71.300,81.600 71.400 C 81.082 71.500,80.525 71.798,80.361 72.062 C 80.198 72.327,79.740 72.591,79.343 72.650 C 78.946 72.708,78.392 73.070,78.111 73.454 C 77.830 73.838,77.600 74.018,77.600 73.854 C 77.600 73.689,77.060 73.874,76.400 74.264 C 75.740 74.654,75.200 75.086,75.200 75.225 C 75.200 75.365,74.435 75.816,73.500 76.228 C 72.565 76.641,71.692 77.130,71.560 77.316 C 71.428 77.501,71.027 77.696,70.669 77.749 C 70.310 77.801,69.534 78.284,68.944 78.822 C 68.354 79.360,68.019 79.530,68.200 79.200 C 68.381 78.870,68.082 79.007,67.535 79.504 C 66.988 80.001,66.423 80.290,66.280 80.146 C 66.136 80.003,65.905 80.181,65.767 80.543 C 65.628 80.904,65.253 81.200,64.934 81.200 C 64.614 81.200,64.463 81.378,64.597 81.595 C 64.732 81.813,64.596 81.897,64.297 81.782 C 63.997 81.667,63.080 82.029,62.258 82.586 C 61.437 83.144,60.612 83.600,60.425 83.600 C 60.238 83.600,59.982 83.870,59.855 84.200 C 59.729 84.530,59.259 84.800,58.813 84.800 C 58.366 84.800,58.000 84.974,58.000 85.187 C 58.000 85.401,57.753 85.480,57.452 85.364 C 57.150 85.249,56.796 85.434,56.664 85.777 C 56.533 86.120,56.149 86.400,55.813 86.400 C 55.476 86.400,54.833 86.767,54.385 87.215 C 53.937 87.663,53.396 87.921,53.183 87.789 C 52.969 87.657,52.686 87.831,52.554 88.175 C 52.422 88.519,52.047 88.800,51.720 88.800 C 51.394 88.800,50.669 89.160,50.109 89.600 C 49.550 90.040,48.846 90.400,48.546 90.400 C 48.246 90.400,48.000 90.537,48.000 90.704 C 48.000 90.871,47.621 91.244,47.158 91.533 C 46.695 91.822,46.434 91.868,46.579 91.634 C 46.739 91.374,46.600 91.302,46.221 91.447 C 45.879 91.578,45.600 91.936,45.600 92.243 C 45.600 92.549,45.259 92.800,44.843 92.800 C 44.426 92.800,43.982 93.070,43.855 93.400 C 43.729 93.730,43.304 94.006,42.913 94.013 C 42.079 94.029,40.400 95.332,40.400 95.964 C 40.400 96.204,40.119 96.400,39.776 96.400 C 39.433 96.400,39.265 96.581,39.402 96.803 C 39.539 97.024,39.324 97.326,38.925 97.474 C 37.921 97.845,36.415 99.296,36.407 99.900 C 36.403 100.175,36.130 100.400,35.800 100.400 C 35.470 100.400,35.200 100.642,35.200 100.938 C 35.200 101.234,34.840 101.802,34.400 102.200 C 33.960 102.598,33.600 103.190,33.600 103.515 C 33.600 103.840,33.285 104.399,32.900 104.757 C 31.912 105.677,31.304 106.883,31.423 107.688 C 31.480 108.066,31.407 108.336,31.263 108.288 C 31.118 108.239,31.000 108.307,31.000 108.439 C 31.000 108.570,30.798 108.930,30.551 109.239 C 30.305 109.547,30.160 110.157,30.230 110.593 C 30.299 111.029,30.124 111.659,29.839 111.993 C 28.955 113.030,28.615 113.761,29.178 113.414 C 29.568 113.173,29.583 113.285,29.244 113.917 C 28.387 115.520,28.668 288.526,29.530 289.519 C 29.919 289.968,30.226 290.845,30.211 291.468 C 30.196 292.091,30.456 292.810,30.789 293.066 C 31.122 293.322,31.413 293.772,31.436 294.066 C 31.459 294.360,31.506 294.926,31.539 295.324 C 31.573 295.722,31.780 295.936,32.000 295.800 C 32.226 295.660,32.400 295.986,32.400 296.548 C 32.400 297.095,32.625 297.781,32.900 298.071 C 33.175 298.362,33.892 299.320,34.494 300.200 C 36.513 303.152,41.585 307.881,42.139 307.327 C 42.272 307.194,42.500 307.395,42.645 307.773 C 42.790 308.152,43.290 308.630,43.755 308.837 C 44.220 309.043,45.140 309.555,45.800 309.974 C 46.460 310.394,47.945 311.230,49.100 311.834 C 50.255 312.437,51.200 313.092,51.200 313.289 C 51.200 313.486,51.353 313.553,51.539 313.437 C 51.726 313.322,52.221 313.536,52.639 313.914 C 53.058 314.291,54.439 315.118,55.709 315.752 C 56.978 316.386,58.116 317.064,58.236 317.259 C 58.357 317.454,58.599 317.524,58.774 317.416 C 58.950 317.308,59.411 317.570,59.800 318.000 C 60.189 318.430,60.639 318.700,60.800 318.600 C 60.961 318.500,61.415 318.775,61.809 319.209 C 62.202 319.644,62.791 320.000,63.118 320.000 C 63.445 320.000,63.915 320.278,64.164 320.618 C 64.412 320.958,65.017 321.266,65.508 321.303 C 65.998 321.340,66.400 321.518,66.400 321.698 C 66.400 321.878,66.715 322.146,67.100 322.294 C 67.485 322.441,68.537 323.059,69.437 323.667 C 70.338 324.275,71.508 324.961,72.037 325.192 C 72.567 325.423,73.540 325.959,74.200 326.384 C 74.860 326.809,76.210 327.571,77.200 328.078 C 78.190 328.585,79.240 329.227,79.532 329.504 C 79.825 329.781,80.206 329.920,80.379 329.813 C 80.552 329.706,81.015 329.975,81.409 330.409 C 81.802 330.844,82.295 331.200,82.504 331.200 C 82.713 331.200,83.684 331.740,84.662 332.400 C 85.640 333.060,86.584 333.600,86.759 333.600 C 86.934 333.600,87.493 333.960,88.000 334.400 C 88.507 334.840,89.255 335.200,89.661 335.200 C 90.068 335.200,90.400 335.368,90.400 335.573 C 90.400 335.778,90.805 336.072,91.300 336.227 C 91.795 336.381,92.292 336.649,92.404 336.822 C 92.516 336.995,92.861 337.195,93.170 337.268 C 93.480 337.341,94.070 337.722,94.481 338.115 C 94.893 338.508,95.379 338.737,95.561 338.624 C 95.744 338.511,96.215 338.775,96.609 339.209 C 97.002 339.644,97.647 340.000,98.042 340.000 C 98.437 340.000,98.904 340.225,99.080 340.500 C 99.256 340.775,100.120 341.360,101.000 341.800 C 101.880 342.240,103.355 343.101,104.277 343.713 C 105.199 344.325,106.504 345.017,107.177 345.252 C 107.850 345.486,108.400 345.841,108.400 346.039 C 108.400 346.238,108.599 346.400,108.842 346.400 C 109.085 346.400,110.084 346.940,111.062 347.600 C 112.040 348.260,113.191 348.800,113.620 348.800 C 114.049 348.800,114.400 348.984,114.400 349.210 C 114.400 349.435,114.805 349.798,115.300 350.016 C 115.795 350.234,116.740 350.767,117.400 351.200 C 118.060 351.633,118.960 352.175,119.400 352.404 C 119.840 352.632,120.920 353.256,121.800 353.790 C 122.680 354.325,123.670 354.892,124.000 355.052 C 124.330 355.211,125.303 355.780,126.163 356.315 C 127.022 356.851,127.982 357.327,128.295 357.373 C 128.608 357.419,128.998 357.673,129.161 357.938 C 129.325 358.202,129.887 358.501,130.409 358.602 C 130.932 358.702,131.513 359.058,131.700 359.392 C 131.887 359.727,132.391 360.000,132.820 360.000 C 133.249 360.000,133.600 360.175,133.600 360.388 C 133.600 360.602,134.590 361.245,135.800 361.817 C 137.010 362.390,138.000 363.025,138.000 363.229 C 138.000 363.433,138.135 363.571,138.300 363.536 C 138.754 363.440,140.132 364.088,140.729 364.678 C 141.019 364.965,141.514 365.200,141.829 365.200 C 142.143 365.200,142.400 365.351,142.400 365.535 C 142.400 365.719,143.345 366.360,144.500 366.960 C 145.655 367.560,146.870 368.206,147.200 368.396 C 147.530 368.587,148.070 368.847,148.400 368.976 C 148.730 369.104,149.540 369.564,150.200 369.998 C 150.860 370.433,151.760 370.973,152.200 371.200 C 152.640 371.427,153.540 371.970,154.200 372.407 C 154.860 372.844,155.940 373.477,156.600 373.814 C 157.260 374.151,158.700 374.967,159.800 375.627 C 160.900 376.287,162.250 377.042,162.800 377.305 C 163.350 377.568,163.894 377.911,164.008 378.067 C 164.123 378.223,164.663 378.544,165.208 378.781 C 165.754 379.018,166.740 379.567,167.400 380.000 C 168.060 380.433,168.988 380.960,169.461 381.169 C 169.935 381.379,170.440 381.742,170.585 381.975 C 170.729 382.209,171.202 382.400,171.636 382.400 C 172.070 382.400,172.522 382.654,172.641 382.964 C 172.761 383.274,173.295 383.637,173.829 383.772 C 174.363 383.906,174.800 384.202,174.800 384.431 C 174.800 384.660,174.980 384.736,175.200 384.600 C 175.420 384.464,175.600 384.499,175.600 384.679 C 175.600 384.968,177.839 386.164,178.429 386.190 C 178.554 386.195,178.972 386.515,179.357 386.900 C 179.742 387.285,180.292 387.600,180.580 387.600 C 180.867 387.600,181.326 387.870,181.600 388.200 C 181.874 388.530,182.414 388.800,182.800 388.800 C 183.186 388.800,183.726 389.070,184.000 389.400 C 184.274 389.730,184.994 390.000,185.600 390.000 C 186.206 390.000,186.919 390.261,187.184 390.580 C 187.449 390.900,188.506 391.282,189.533 391.431 C 190.560 391.579,191.619 391.875,191.886 392.087 C 192.609 392.663,201.469 392.938,204.000 392.463 C 208.140 391.686,210.200 391.111,210.831 390.555 C 211.179 390.250,211.781 390.000,212.170 390.000 C 212.793 390.000,214.082 389.442,216.000 388.342 C 216.330 388.153,217.046 387.807,217.592 387.574 C 218.137 387.341,218.677 387.024,218.792 386.870 C 218.906 386.715,219.990 386.090,221.200 385.481 C 222.410 384.871,223.940 384.021,224.600 383.592 C 225.260 383.163,226.160 382.627,226.600 382.400 C 227.040 382.173,227.940 381.633,228.600 381.200 C 229.260 380.767,230.246 380.218,230.792 379.981 C 231.337 379.744,231.877 379.426,231.992 379.275 C 232.106 379.123,233.069 378.549,234.132 378.000 C 237.717 376.144,238.199 375.877,238.401 375.638 C 238.512 375.507,239.412 374.970,240.401 374.445 C 241.391 373.920,242.974 372.975,243.920 372.345 C 244.866 371.715,245.907 371.200,246.233 371.200 C 246.558 371.200,246.929 370.930,247.055 370.600 C 247.182 370.270,247.598 370.000,247.981 370.000 C 248.363 370.000,248.998 369.644,249.391 369.209 C 249.785 368.775,250.239 368.500,250.400 368.600 C 250.561 368.700,251.011 368.430,251.400 368.000 C 251.789 367.570,252.248 367.306,252.421 367.413 C 252.594 367.520,252.975 367.380,253.268 367.102 C 253.560 366.825,254.839 366.080,256.109 365.447 C 257.378 364.814,258.526 364.119,258.660 363.903 C 258.794 363.686,259.645 363.156,260.552 362.725 C 262.721 361.692,263.767 361.091,264.598 360.402 C 264.973 360.090,265.574 359.792,265.933 359.739 C 266.292 359.687,266.649 359.454,266.726 359.222 C 266.803 358.990,267.100 358.800,267.384 358.800 C 267.669 358.800,268.126 358.530,268.400 358.200 C 268.674 357.870,269.158 357.600,269.476 357.600 C 269.793 357.600,270.671 357.129,271.427 356.553 C 272.182 355.976,272.803 355.661,272.806 355.853 C 272.809 356.044,272.944 356.020,273.106 355.800 C 273.268 355.580,274.107 355.040,274.971 354.600 C 275.834 354.160,276.736 353.606,276.974 353.368 C 277.483 352.860,279.348 351.819,280.900 351.177 C 281.505 350.927,282.000 350.559,282.000 350.361 C 282.000 350.162,282.246 350.000,282.546 350.000 C 282.846 350.000,283.542 349.646,284.092 349.213 C 284.643 348.780,285.203 348.536,285.337 348.670 C 285.471 348.805,285.695 348.619,285.833 348.257 C 285.972 347.896,286.413 347.600,286.814 347.600 C 287.215 347.600,287.789 347.375,288.091 347.100 C 288.392 346.825,289.440 346.170,290.419 345.645 C 291.399 345.120,292.974 344.175,293.920 343.545 C 294.866 342.915,295.890 342.400,296.196 342.400 C 296.502 342.400,296.871 342.209,297.015 341.975 C 297.160 341.742,297.665 341.379,298.139 341.169 C 298.612 340.960,299.540 340.433,300.200 340.000 C 300.860 339.567,301.846 339.018,302.392 338.781 C 302.937 338.544,303.478 338.226,303.592 338.075 C 303.707 337.924,304.430 337.468,305.200 337.062 C 307.850 335.666,309.000 334.999,309.200 334.745 C 309.310 334.605,310.075 334.209,310.900 333.865 C 311.725 333.522,312.400 333.052,312.400 332.820 C 312.400 332.589,312.749 332.400,313.176 332.400 C 313.603 332.400,314.071 332.209,314.215 331.975 C 314.360 331.742,314.865 331.379,315.339 331.169 C 315.812 330.960,316.740 330.433,317.400 329.998 C 318.060 329.564,318.870 329.104,319.200 328.976 C 319.530 328.847,320.070 328.573,320.400 328.365 C 320.730 328.158,321.495 327.793,322.100 327.555 C 322.705 327.317,323.200 326.979,323.200 326.804 C 323.200 326.630,323.650 326.374,324.200 326.236 C 324.750 326.098,325.200 325.808,325.200 325.592 C 325.200 325.377,325.457 325.200,325.771 325.200 C 326.086 325.200,326.581 324.973,326.871 324.695 C 327.162 324.418,327.850 323.967,328.400 323.694 C 330.785 322.510,333.811 320.686,333.933 320.357 C 334.007 320.161,334.403 320.000,334.813 320.000 C 335.224 320.000,335.713 319.727,335.900 319.392 C 336.087 319.058,336.668 318.702,337.191 318.602 C 337.713 318.501,338.283 318.190,338.456 317.909 C 338.629 317.629,338.926 317.400,339.117 317.400 C 339.692 317.400,342.400 315.840,342.400 315.509 C 342.400 315.339,342.738 315.200,343.151 315.200 C 343.564 315.200,344.120 314.937,344.387 314.615 C 344.654 314.294,345.233 313.917,345.674 313.777 C 346.114 313.637,347.249 313.000,348.196 312.361 C 349.142 311.723,350.075 311.200,350.269 311.200 C 350.463 311.200,350.937 310.832,351.322 310.383 C 351.707 309.934,352.176 309.662,352.365 309.779 C 352.555 309.896,352.932 309.723,353.204 309.396 C 353.476 309.068,353.863 308.800,354.065 308.800 C 356.266 308.800,365.835 298.169,366.263 295.248 C 366.309 294.936,366.550 294.554,366.799 294.401 C 367.047 294.247,367.345 293.509,367.461 292.761 C 367.577 292.012,367.896 291.130,368.170 290.800 C 368.444 290.470,368.714 289.308,368.769 288.217 C 368.825 287.127,369.124 285.873,369.433 285.431 C 370.294 284.202,370.272 118.166,369.411 116.937 C 369.092 116.482,368.764 114.979,368.681 113.597 C 368.589 112.055,368.312 110.914,367.962 110.643 C 367.650 110.399,367.450 109.817,367.518 109.350 C 367.587 108.882,367.353 108.210,367.000 107.857 C 366.646 107.503,366.293 106.896,366.214 106.507 C 365.982 105.354,364.942 103.591,364.661 103.873 C 364.517 104.016,364.400 103.823,364.400 103.443 C 364.400 103.063,364.220 102.864,364.000 103.000 C 363.780 103.136,363.578 103.057,363.550 102.824 C 363.446 101.943,363.378 101.777,362.761 100.903 C 362.413 100.409,362.034 100.100,361.918 100.215 C 361.802 100.331,361.482 99.880,361.205 99.213 C 360.929 98.546,360.567 98.000,360.401 98.000 C 360.235 98.000,359.359 97.325,358.454 96.500 C 355.939 94.206,355.712 94.033,354.515 93.498 C 353.902 93.224,352.992 92.650,352.494 92.223 C 351.996 91.795,351.294 91.402,350.934 91.349 C 350.574 91.296,350.172 91.097,350.040 90.905 C 349.552 90.198,346.801 88.752,346.407 88.995 C 346.183 89.134,346.000 88.986,346.000 88.666 C 346.000 88.347,345.715 87.976,345.367 87.843 C 344.455 87.493,344.321 87.538,344.605 88.100 C 344.744 88.375,344.403 88.067,343.847 87.416 C 343.290 86.764,342.727 86.340,342.593 86.473 C 342.460 86.606,341.922 86.286,341.398 85.762 C 340.821 85.185,340.192 84.905,339.806 85.053 C 339.391 85.212,339.208 85.106,339.284 84.749 C 339.354 84.418,339.122 84.247,338.700 84.318 C 338.315 84.382,338.000 84.267,338.000 84.061 C 338.000 83.855,337.550 83.574,337.000 83.436 C 336.450 83.298,335.997 82.963,335.994 82.692 C 335.990 82.373,335.849 82.411,335.594 82.800 C 335.265 83.301,335.159 83.251,334.953 82.500 C 334.740 81.723,334.051 81.366,333.408 81.700 C 333.302 81.755,332.930 81.392,332.580 80.893 C 332.231 80.395,331.776 80.091,331.570 80.219 C 331.363 80.346,331.092 80.183,330.966 79.856 C 330.841 79.529,330.473 79.160,330.148 79.036 C 329.757 78.885,329.656 78.976,329.848 79.305 C 330.157 79.834,328.400 78.472,327.906 77.800 C 327.744 77.580,327.609 77.550,327.606 77.733 C 327.598 78.164,324.700 76.407,324.275 75.714 C 324.097 75.422,323.772 75.293,323.554 75.428 C 323.336 75.563,322.852 75.325,322.479 74.899 C 322.105 74.474,321.575 74.202,321.300 74.296 C 321.025 74.390,320.800 74.261,320.800 74.010 C 320.800 73.758,320.631 73.657,320.425 73.785 C 320.218 73.912,319.894 73.740,319.704 73.401 C 319.515 73.062,318.932 72.702,318.409 72.602 C 317.887 72.501,317.325 72.202,317.161 71.938 C 316.998 71.673,316.540 71.409,316.143 71.350 C 315.746 71.292,315.237 70.992,315.011 70.683 C 314.785 70.374,314.463 70.097,314.296 70.068 C 314.129 70.040,313.454 69.738,312.796 69.398 C 312.138 69.058,311.600 68.908,311.600 69.065 C 311.600 69.222,311.229 68.953,310.776 68.467 C 310.323 67.980,309.792 67.681,309.596 67.802 C 309.400 67.923,309.045 67.657,308.806 67.211 C 308.567 66.765,308.132 66.400,307.840 66.400 C 307.547 66.400,306.879 66.067,306.354 65.660 C 305.829 65.253,305.150 65.006,304.844 65.112 C 304.524 65.222,304.400 65.124,304.550 64.881 C 304.794 64.486,303.366 63.745,302.700 63.921 C 302.535 63.964,302.400 63.820,302.400 63.600 C 302.400 63.380,302.175 63.245,301.900 63.300 C 301.625 63.355,301.449 63.162,301.510 62.870 C 301.570 62.579,301.456 62.442,301.255 62.566 C 301.055 62.690,300.668 62.523,300.396 62.196 C 300.124 61.868,299.713 61.600,299.483 61.600 C 299.252 61.600,298.750 61.316,298.367 60.970 C 297.984 60.623,297.410 60.301,297.091 60.255 C 296.773 60.208,296.204 59.861,295.827 59.484 C 295.374 59.031,294.813 58.882,294.171 59.043 C 293.266 59.270,292.991 58.967,293.148 57.914 C 293.171 57.757,292.923 57.732,292.595 57.857 C 292.268 57.983,292.000 57.904,292.000 57.682 C 292.000 57.253,289.273 55.431,288.600 55.412 C 288.380 55.405,287.885 55.057,287.500 54.639 C 287.115 54.220,286.800 54.017,286.800 54.188 C 286.800 54.358,286.562 54.300,286.270 54.058 C 285.883 53.737,285.599 53.750,285.212 54.110 C 284.921 54.379,284.787 54.411,284.915 54.181 C 285.043 53.950,285.024 53.581,284.874 53.360 C 284.472 52.770,281.406 50.963,281.750 51.519 C 281.943 51.831,281.832 51.910,281.421 51.753 C 281.079 51.622,280.800 51.283,280.800 51.000 C 280.800 50.717,280.521 50.378,280.179 50.247 C 279.760 50.086,279.652 50.170,279.848 50.505 C 280.007 50.777,279.777 50.685,279.337 50.300 C 278.897 49.915,278.316 49.600,278.045 49.600 C 277.774 49.600,277.641 49.457,277.749 49.283 C 277.856 49.109,277.602 48.940,277.183 48.909 C 276.764 48.877,276.012 48.459,275.511 47.979 C 275.010 47.499,274.015 46.855,273.300 46.548 C 272.585 46.241,272.000 45.801,272.000 45.571 C 272.000 45.341,271.832 45.256,271.628 45.383 C 271.423 45.509,271.140 45.427,271.000 45.200 C 270.860 44.973,270.588 44.884,270.397 45.002 C 270.206 45.120,269.890 44.932,269.695 44.583 C 269.500 44.235,269.047 43.907,268.689 43.854 C 268.331 43.802,267.670 43.425,267.219 43.017 C 266.769 42.610,266.400 42.428,266.400 42.613 C 266.400 42.799,266.033 42.557,265.584 42.075 C 264.716 41.143,264.167 40.900,264.633 41.654 C 264.788 41.904,264.366 41.703,263.695 41.207 C 263.025 40.711,262.287 40.423,262.056 40.566 C 261.824 40.709,261.332 40.363,260.962 39.798 C 260.592 39.233,260.089 38.839,259.844 38.923 C 259.600 39.006,259.095 38.726,258.721 38.301 C 258.348 37.875,257.859 37.640,257.634 37.779 C 257.410 37.918,256.997 37.664,256.717 37.216 C 256.437 36.767,256.054 36.400,255.866 36.400 C 255.677 36.400,254.956 35.996,254.262 35.502 C 253.568 35.007,252.910 34.645,252.800 34.697 C 252.444 34.863,251.200 34.355,251.200 34.044 C 251.200 33.878,250.394 33.339,249.409 32.847 C 248.424 32.355,247.513 31.784,247.385 31.576 C 247.257 31.369,246.973 31.200,246.753 31.200 C 246.533 31.200,246.481 31.408,246.638 31.662 C 246.815 31.948,246.748 32.015,246.462 31.838 C 246.208 31.681,246.000 31.293,246.000 30.976 C 246.000 30.466,245.502 30.220,245.032 30.500 C 244.940 30.555,244.360 30.150,243.744 29.600 C 242.945 28.886,242.789 28.829,243.200 29.400 C 243.634 30.004,243.484 29.954,242.589 29.200 C 241.937 28.650,241.342 28.064,241.267 27.898 C 241.193 27.731,240.982 27.688,240.798 27.801 C 240.615 27.915,240.202 27.745,239.881 27.423 C 239.559 27.102,238.825 26.721,238.248 26.576 C 237.672 26.432,237.200 26.044,237.200 25.714 C 237.200 25.345,236.969 25.203,236.600 25.345 C 236.270 25.471,235.997 25.356,235.994 25.087 C 235.990 24.779,235.845 24.821,235.600 25.200 C 235.256 25.732,235.212 25.732,235.206 25.196 C 235.198 24.438,233.718 23.480,233.122 23.848 C 232.859 24.011,232.788 23.943,232.949 23.682 C 233.100 23.439,232.857 23.045,232.411 22.806 C 231.965 22.567,231.594 22.513,231.587 22.686 C 231.580 22.859,231.325 22.671,231.021 22.270 C 230.716 21.868,230.227 21.497,229.934 21.445 C 228.516 21.195,227.613 20.702,227.856 20.309 C 228.008 20.063,227.938 19.991,227.694 20.142 C 227.458 20.288,226.993 20.136,226.661 19.804 C 226.329 19.472,225.886 19.200,225.678 19.200 C 225.469 19.200,225.071 18.926,224.793 18.591 C 224.515 18.256,223.976 18.081,223.596 18.201 C 223.141 18.346,222.674 18.067,222.227 17.385 C 221.854 16.816,221.335 16.423,221.075 16.513 C 220.814 16.602,220.295 16.326,219.921 15.901 C 219.515 15.437,219.033 15.247,218.721 15.427 C 218.435 15.593,218.334 15.581,218.497 15.400 C 218.882 14.976,217.325 13.876,216.799 14.200 C 216.580 14.336,216.400 14.295,216.400 14.110 C 216.400 13.924,215.833 13.438,215.141 13.029 C 214.286 12.524,213.989 12.464,214.218 12.842 C 214.500 13.312,214.449 13.316,213.894 12.866 C 213.532 12.572,213.019 12.464,212.756 12.627 C 212.460 12.810,212.381 12.754,212.549 12.482 C 212.700 12.239,212.436 11.833,211.963 11.580 C 211.286 11.218,211.169 11.227,211.414 11.622 C 211.633 11.977,211.561 12.023,211.169 11.781 C 210.864 11.592,210.299 11.415,209.913 11.386 C 209.527 11.358,208.883 11.037,208.480 10.673 C 207.896 10.144,207.642 10.110,207.216 10.505 C 206.848 10.847,206.765 10.854,206.948 10.528 C 207.138 10.189,206.706 10.090,205.417 10.176 C 204.430 10.242,203.205 10.080,202.696 9.816 C 202.187 9.552,201.380 9.365,200.904 9.400 C 200.427 9.435,200.129 9.314,200.242 9.132 C 200.566 8.607,197.414 8.746,196.880 9.280 M215.200 88.711 C 215.970 88.953,217.770 89.328,219.200 89.544 C 224.506 90.345,232.797 92.535,237.600 94.404 C 238.810 94.875,240.262 95.405,240.827 95.581 C 241.392 95.758,242.202 96.083,242.627 96.304 C 243.052 96.524,244.840 97.368,246.600 98.179 C 248.360 98.991,250.126 99.830,250.524 100.045 C 250.922 100.261,252.452 101.086,253.924 101.879 C 255.396 102.672,257.320 103.786,258.200 104.353 C 259.080 104.920,260.107 105.567,260.482 105.792 C 268.620 110.659,281.618 122.463,288.019 130.800 C 292.346 136.435,296.728 143.056,296.772 144.025 C 296.798 144.612,294.853 146.800,294.306 146.800 C 294.168 146.800,291.774 148.150,288.987 149.800 C 286.200 151.450,283.854 152.800,283.775 152.800 C 283.660 152.800,274.407 158.126,272.000 159.578 C 270.954 160.209,259.939 166.552,257.827 167.740 C 256.712 168.367,254.278 169.774,252.417 170.867 C 247.135 173.968,246.659 173.931,244.201 170.228 C 239.497 163.141,231.525 156.172,223.600 152.219 C 216.098 148.477,213.655 147.820,202.053 146.422 C 198.642 146.011,189.555 146.814,186.000 147.840 C 180.921 149.306,179.676 149.734,177.282 150.838 C 175.897 151.477,174.697 152.000,174.615 152.000 C 174.198 152.000,167.904 155.928,165.807 157.497 C 161.154 160.977,154.349 168.688,151.771 173.400 C 148.630 179.143,146.348 185.031,145.548 189.461 C 145.316 190.747,144.973 192.610,144.787 193.600 C 144.342 195.958,144.360 205.647,144.814 208.200 C 145.009 209.300,145.334 211.190,145.537 212.400 C 145.973 215.006,148.125 221.422,149.458 224.088 C 149.977 225.127,150.693 226.837,151.049 227.888 C 153.720 235.782,172.576 252.400,178.862 252.400 C 179.180 252.400,179.611 252.554,179.820 252.743 C 180.271 253.150,184.642 254.455,188.700 255.394 C 192.141 256.191,206.235 256.347,208.173 255.610 C 208.808 255.369,210.334 255.016,211.564 254.825 C 222.561 253.122,238.780 242.009,244.756 232.084 C 247.528 227.479,247.737 227.431,252.439 230.293 C 253.847 231.150,255.270 231.976,255.600 232.129 C 255.930 232.281,256.920 232.858,257.800 233.411 C 258.680 233.964,259.669 234.539,259.997 234.688 C 260.325 234.838,263.267 236.544,266.535 238.480 C 269.803 240.416,272.544 242.000,272.626 242.000 C 272.708 242.000,276.125 243.980,280.218 246.400 C 284.311 248.820,287.731 250.800,287.818 250.800 C 288.861 250.800,296.800 256.181,296.800 256.889 C 296.800 257.211,292.432 263.958,289.691 267.871 C 286.069 273.041,278.351 281.432,273.209 285.789 C 258.118 298.580,244.282 305.717,224.800 310.757 C 223.810 311.014,221.773 311.395,220.274 311.604 C 218.775 311.813,217.378 312.090,217.169 312.219 C 216.775 312.463,212.021 312.944,203.800 313.572 C 198.130 314.005,185.172 313.171,179.600 312.014 C 173.582 310.765,169.647 309.865,168.200 309.407 C 167.320 309.128,165.610 308.593,164.400 308.218 C 159.852 306.809,154.833 304.762,149.200 302.018 C 131.641 293.464,116.277 279.869,104.881 262.800 C 103.045 260.050,101.188 257.420,100.754 256.956 C 99.862 256.001,96.439 249.420,94.951 245.800 C 94.408 244.480,93.811 243.040,93.623 242.600 C 92.641 240.293,91.644 237.542,91.017 235.400 C 90.629 234.080,90.062 232.229,89.756 231.286 C 89.450 230.343,89.200 229.206,89.200 228.760 C 89.200 228.313,89.013 227.598,88.784 227.170 C 88.555 226.743,88.210 225.270,88.017 223.897 C 87.824 222.523,87.475 220.680,87.242 219.800 C 87.010 218.920,86.815 217.300,86.810 216.200 C 86.804 215.100,86.533 212.940,86.207 211.400 C 85.531 208.211,85.412 196.761,86.006 192.200 C 86.207 190.660,86.550 187.767,86.768 185.771 C 86.987 183.775,87.354 181.648,87.583 181.045 C 87.812 180.441,88.000 179.324,88.000 178.561 C 88.000 177.798,88.270 176.528,88.600 175.738 C 88.930 174.949,89.200 173.985,89.200 173.597 C 89.200 173.209,89.487 171.926,89.837 170.746 C 91.408 165.450,92.102 163.313,92.631 162.140 C 92.944 161.446,93.200 160.626,93.200 160.316 C 93.200 160.006,93.464 159.404,93.787 158.976 C 94.110 158.549,94.380 157.975,94.387 157.699 C 94.402 157.139,99.450 146.797,101.074 144.000 C 107.498 132.938,118.676 119.958,128.010 112.722 C 138.356 104.701,150.088 98.034,159.600 94.771 C 161.030 94.280,163.190 93.527,164.400 93.097 C 166.427 92.377,167.898 91.979,172.800 90.828 C 173.790 90.595,175.230 90.217,176.000 89.987 C 176.770 89.757,178.840 89.410,180.600 89.215 C 182.360 89.021,184.430 88.679,185.200 88.456 C 187.115 87.901,213.334 88.124,215.200 88.711 M308.571 163.829 C 309.340 164.597,309.345 164.941,308.645 168.321 C 307.754 172.626,307.163 176.896,307.424 177.158 C 307.846 177.583,318.558 177.673,319.641 177.261 C 320.545 176.917,320.718 176.558,320.956 174.532 C 321.106 173.250,321.396 171.570,321.600 170.800 C 321.805 170.030,322.083 168.350,322.219 167.067 C 322.593 163.533,323.102 163.200,328.124 163.200 C 334.306 163.200,334.375 163.380,332.147 173.787 C 331.394 177.306,331.682 177.600,335.886 177.600 C 339.445 177.600,339.600 177.831,339.600 183.150 C 339.600 187.888,339.589 187.898,334.279 188.076 C 329.504 188.237,329.221 188.389,329.200 190.800 C 329.194 191.570,328.935 193.280,328.625 194.600 C 328.315 195.920,328.002 198.260,327.931 199.800 L 327.800 202.600 331.387 202.717 C 336.282 202.876,336.400 203.003,336.400 208.130 C 336.400 213.593,336.392 213.600,330.587 213.600 C 324.894 213.600,325.539 212.729,323.770 222.800 C 322.797 228.338,323.196 228.000,317.635 228.000 C 311.879 228.000,311.713 227.890,312.359 224.509 C 313.235 219.920,313.988 214.304,313.773 213.956 C 313.424 213.392,301.452 213.508,300.880 214.080 C 300.616 214.344,300.400 215.169,300.400 215.914 C 300.400 216.659,300.131 218.378,299.802 219.734 C 299.474 221.090,299.101 223.235,298.974 224.500 C 298.638 227.835,298.358 228.001,293.071 227.994 C 287.669 227.986,287.393 227.859,287.758 225.540 C 287.909 224.583,288.185 222.630,288.372 221.200 C 288.559 219.770,288.932 217.748,289.201 216.707 C 289.950 213.816,289.734 213.600,286.093 213.600 C 282.004 213.600,282.000 213.595,282.000 208.200 C 282.000 202.692,281.903 202.800,286.851 202.800 C 291.237 202.800,291.996 202.428,292.006 200.271 C 292.009 199.572,292.278 197.869,292.604 196.487 C 294.464 188.597,294.196 188.015,288.690 188.005 C 284.896 187.999,284.664 187.656,284.868 182.361 C 285.049 177.642,285.098 177.600,290.373 177.600 C 293.192 177.600,294.860 177.430,295.272 177.100 C 295.926 176.577,297.200 172.000,297.200 170.176 C 297.200 168.785,298.357 164.339,298.885 163.700 C 299.542 162.905,307.757 163.014,308.571 163.829 M305.260 188.527 C 305.020 188.817,304.530 190.842,304.172 193.027 C 303.815 195.212,303.333 198.105,303.101 199.456 C 302.438 203.329,302.224 203.200,309.338 203.200 C 316.398 203.200,316.211 203.286,316.839 199.745 C 317.068 198.455,317.515 196.140,317.833 194.600 C 318.150 193.060,318.408 190.945,318.405 189.900 L 318.400 188.000 312.049 188.000 C 307.281 188.000,305.589 188.131,305.260 188.527 " stroke="none" fill="#833199" fill-rule="evenodd"></path><path id="path2" d="M185.200 88.456 C 184.430 88.679,182.360 89.021,180.600 89.215 C 178.840 89.410,176.770 89.757,176.000 89.987 C 175.230 90.217,173.790 90.595,172.800 90.828 C 167.898 91.979,166.427 92.377,164.400 93.097 C 163.190 93.527,161.030 94.280,159.600 94.771 C 150.088 98.034,138.356 104.701,128.010 112.722 C 118.676 119.958,107.498 132.938,101.074 144.000 C 99.450 146.797,94.402 157.139,94.387 157.699 C 94.380 157.975,94.110 158.549,93.787 158.976 C 93.464 159.404,93.200 160.006,93.200 160.316 C 93.200 160.626,92.944 161.446,92.631 162.140 C 92.102 163.313,91.408 165.450,89.837 170.746 C 89.487 171.926,89.200 173.209,89.200 173.597 C 89.200 173.985,88.930 174.949,88.600 175.738 C 88.270 176.528,88.000 177.798,88.000 178.561 C 88.000 179.324,87.812 180.441,87.583 181.045 C 87.354 181.648,86.987 183.775,86.768 185.771 C 86.550 187.767,86.207 190.660,86.006 192.200 C 85.412 196.761,85.531 208.211,86.207 211.400 C 86.533 212.940,86.804 215.100,86.810 216.200 C 86.815 217.300,87.010 218.920,87.242 219.800 C 87.475 220.680,87.824 222.523,88.017 223.897 C 88.210 225.270,88.555 226.743,88.784 227.170 C 89.013 227.598,89.200 228.313,89.200 228.760 C 89.200 229.206,89.450 230.343,89.756 231.286 C 90.062 232.229,90.629 234.080,91.017 235.400 C 91.644 237.542,92.641 240.293,93.623 242.600 C 93.811 243.040,94.408 244.480,94.951 245.800 C 96.439 249.420,99.862 256.001,100.754 256.956 C 101.188 257.420,103.045 260.050,104.881 262.800 C 113.767 276.109,124.303 286.595,137.708 295.472 C 140.539 297.346,142.947 298.786,143.061 298.672 C 143.175 298.558,142.848 298.244,142.334 297.975 C 131.993 292.551,114.897 277.015,108.000 266.772 C 101.610 257.283,99.678 254.127,97.429 249.504 C 95.983 246.532,94.800 243.904,94.800 243.664 C 94.800 243.264,94.466 242.402,92.991 239.000 C 92.705 238.340,92.374 237.440,92.255 237.000 C 92.137 236.560,91.663 234.940,91.202 233.400 C 89.030 226.137,88.054 221.024,86.761 210.129 C 85.805 202.069,87.275 182.523,89.373 175.400 C 89.697 174.300,90.246 172.320,90.593 171.000 C 91.425 167.836,92.555 164.314,93.607 161.600 C 94.076 160.390,94.603 158.950,94.778 158.400 C 100.127 141.593,121.015 116.675,138.729 105.970 C 140.339 104.996,142.139 103.890,142.729 103.511 C 144.261 102.527,153.793 97.852,156.400 96.807 C 157.610 96.322,159.050 95.743,159.600 95.519 C 164.862 93.382,175.491 90.621,181.000 89.959 C 182.760 89.748,184.920 89.375,185.800 89.132 C 188.614 88.352,209.042 88.481,214.000 89.309 C 221.055 90.488,226.628 91.742,233.000 93.585 C 234.614 94.052,240.801 96.293,241.800 96.772 C 242.240 96.983,243.500 97.547,244.600 98.025 C 263.738 106.341,281.240 121.181,293.114 139.163 C 296.836 144.800,296.837 144.782,292.600 147.219 C 291.280 147.979,289.840 148.818,289.400 149.084 C 288.960 149.351,288.330 149.695,288.000 149.849 C 287.670 150.003,285.510 151.237,283.200 152.592 C 280.890 153.947,278.730 155.179,278.400 155.331 C 278.070 155.483,277.236 155.950,276.548 156.369 C 275.251 157.158,265.666 162.712,263.200 164.103 C 260.474 165.641,254.992 168.824,254.400 169.212 C 254.070 169.428,253.530 169.728,253.200 169.879 C 252.870 170.030,251.580 170.749,250.333 171.477 C 247.327 173.231,247.031 173.176,245.359 170.563 C 236.487 156.694,221.473 147.728,204.000 145.864 C 196.436 145.057,189.570 145.848,181.400 148.468 C 167.287 152.993,153.690 165.369,148.347 178.552 C 147.891 179.679,147.361 180.960,147.170 181.400 C 146.483 182.983,145.289 187.061,144.594 190.200 C 143.761 193.957,143.628 207.983,144.402 210.400 C 144.648 211.170,144.997 212.700,145.177 213.800 C 147.253 226.504,157.745 241.084,170.306 248.720 C 174.024 250.980,173.057 250.088,168.592 247.140 C 161.216 242.268,152.784 233.015,151.049 227.888 C 150.693 226.837,149.977 225.127,149.458 224.088 C 148.125 221.422,145.973 215.006,145.537 212.400 C 145.334 211.190,145.009 209.300,144.814 208.200 C 144.360 205.647,144.342 195.958,144.787 193.600 C 144.973 192.610,145.316 190.747,145.548 189.461 C 146.348 185.031,148.630 179.143,151.771 173.400 C 154.349 168.688,161.154 160.977,165.807 157.497 C 167.904 155.928,174.198 152.000,174.615 152.000 C 174.697 152.000,175.897 151.477,177.282 150.838 C 179.676 149.734,180.921 149.306,186.000 147.840 C 189.555 146.814,198.642 146.011,202.053 146.422 C 213.655 147.820,216.098 148.477,223.600 152.219 C 231.525 156.172,239.497 163.141,244.201 170.228 C 246.659 173.931,247.135 173.968,252.417 170.867 C 254.278 169.774,256.712 168.367,257.827 167.740 C 259.939 166.552,270.954 160.209,272.000 159.578 C 274.407 158.126,283.660 152.800,283.775 152.800 C 283.854 152.800,286.200 151.450,288.987 149.800 C 291.774 148.150,294.168 146.800,294.306 146.800 C 294.853 146.800,296.798 144.612,296.772 144.025 C 296.728 143.056,292.346 136.435,288.019 130.800 C 281.618 122.463,268.620 110.659,260.482 105.792 C 260.107 105.567,259.080 104.920,258.200 104.353 C 257.320 103.786,255.396 102.672,253.924 101.879 C 252.452 101.086,250.922 100.261,250.524 100.045 C 250.126 99.830,248.360 98.991,246.600 98.179 C 244.840 97.368,243.052 96.524,242.627 96.304 C 242.202 96.083,241.392 95.758,240.827 95.581 C 240.262 95.405,238.810 94.875,237.600 94.404 C 232.797 92.535,224.506 90.345,219.200 89.544 C 217.770 89.328,215.970 88.953,215.200 88.711 C 213.334 88.124,187.115 87.901,185.200 88.456 M298.885 163.700 C 298.357 164.339,297.200 168.785,297.200 170.176 C 297.200 172.000,295.926 176.577,295.272 177.100 C 294.860 177.430,293.192 177.600,290.373 177.600 C 285.098 177.600,285.049 177.642,284.868 182.361 C 284.664 187.656,284.896 187.999,288.690 188.005 C 294.196 188.015,294.464 188.597,292.604 196.487 C 292.278 197.869,292.009 199.572,292.006 200.271 C 291.996 202.428,291.237 202.800,286.851 202.800 C 281.903 202.800,282.000 202.692,282.000 208.200 C 282.000 213.595,282.004 213.600,286.093 213.600 C 289.734 213.600,289.950 213.816,289.201 216.707 C 288.932 217.748,288.559 219.770,288.372 221.200 C 288.185 222.630,287.909 224.583,287.758 225.540 C 287.393 227.859,287.669 227.986,293.071 227.994 C 298.358 228.001,298.638 227.835,298.974 224.500 C 299.101 223.235,299.474 221.090,299.802 219.734 C 300.131 218.378,300.400 216.659,300.400 215.914 C 300.400 215.169,300.616 214.344,300.880 214.080 C 301.452 213.508,313.424 213.392,313.773 213.956 C 313.988 214.304,313.235 219.920,312.359 224.509 C 311.713 227.890,311.879 228.000,317.635 228.000 C 323.196 228.000,322.797 228.338,323.770 222.800 C 325.539 212.729,324.894 213.600,330.587 213.600 C 336.392 213.600,336.400 213.593,336.400 208.130 C 336.400 203.003,336.282 202.876,331.387 202.717 L 327.800 202.600 327.931 199.800 C 328.002 198.260,328.315 195.920,328.625 194.600 C 328.935 193.280,329.194 191.570,329.200 190.800 C 329.221 188.389,329.504 188.237,334.279 188.076 C 339.589 187.898,339.600 187.888,339.600 183.150 C 339.600 177.831,339.445 177.600,335.886 177.600 C 331.682 177.600,331.394 177.306,332.147 173.787 C 334.375 163.380,334.306 163.200,328.124 163.200 C 323.102 163.200,322.593 163.533,322.219 167.067 C 322.083 168.350,321.805 170.030,321.600 170.800 C 321.396 171.570,321.106 173.250,320.956 174.532 C 320.718 176.558,320.545 176.917,319.641 177.261 C 318.558 177.673,307.846 177.583,307.424 177.158 C 307.163 176.896,307.754 172.626,308.645 168.321 C 309.669 163.378,309.495 163.200,303.620 163.200 C 300.649 163.200,299.169 163.356,298.885 163.700 M307.472 163.845 C 308.926 164.235,308.920 164.369,307.057 174.078 C 306.285 178.102,306.111 178.000,313.771 178.000 C 321.717 178.000,320.962 178.872,322.596 167.800 C 323.163 163.960,323.630 163.611,328.200 163.611 C 333.538 163.611,333.429 163.412,332.158 170.803 C 330.888 178.186,330.789 177.941,335.122 178.085 L 338.600 178.200 338.713 182.900 L 338.825 187.600 334.913 187.605 C 330.204 187.612,329.241 187.832,329.030 188.948 C 328.941 189.417,328.567 191.690,328.199 194.000 C 327.831 196.310,327.347 199.057,327.124 200.105 C 326.501 203.028,326.681 203.200,330.361 203.200 C 332.114 203.200,334.016 203.378,334.588 203.595 L 335.627 203.991 335.514 208.295 L 335.400 212.600 330.485 212.800 C 324.404 213.047,325.039 212.224,323.386 222.000 C 322.370 228.004,322.798 227.600,317.451 227.600 C 312.134 227.600,312.255 227.704,313.001 223.767 C 315.074 212.821,315.094 213.353,312.589 212.977 C 310.664 212.689,300.989 212.877,300.657 213.210 C 300.382 213.485,298.932 220.807,298.615 223.516 C 298.128 227.686,298.241 227.600,293.259 227.600 C 290.248 227.600,288.775 227.445,288.502 227.100 C 288.099 226.591,288.721 221.203,289.584 217.723 C 290.624 213.530,290.278 213.080,285.800 212.800 L 282.600 212.600 282.485 208.406 C 282.342 203.175,282.317 203.200,287.653 203.200 C 292.498 203.200,291.899 204.238,293.829 192.486 C 294.639 187.556,294.856 187.834,290.067 187.659 C 285.475 187.491,285.614 187.638,285.606 182.929 C 285.598 178.021,285.621 178.000,291.219 178.000 C 296.499 178.000,296.518 177.983,297.373 172.372 C 298.194 166.985,298.834 164.244,299.351 163.906 C 299.884 163.557,306.221 163.509,307.472 163.845 M304.845 188.146 C 304.587 188.457,304.104 190.306,303.773 192.256 C 302.467 199.928,302.047 202.952,302.243 203.269 C 302.515 203.710,315.648 203.684,316.347 203.241 C 316.909 202.885,318.647 193.677,318.878 189.833 L 319.000 187.800 312.157 187.691 C 306.652 187.603,305.222 187.692,304.845 188.146 M318.405 189.900 C 318.408 190.945,318.150 193.060,317.833 194.600 C 317.515 196.140,317.068 198.455,316.839 199.745 C 316.211 203.286,316.398 203.200,309.338 203.200 C 302.224 203.200,302.438 203.329,303.101 199.456 C 303.333 198.105,303.815 195.212,304.172 193.027 C 305.048 187.681,304.548 188.000,312.049 188.000 L 318.400 188.000 318.405 189.900 M247.304 228.612 C 246.868 228.917,245.721 230.480,244.756 232.084 C 239.877 240.188,227.799 249.546,217.767 252.994 C 214.989 253.949,211.959 255.313,214.132 254.631 C 227.675 250.377,239.176 241.891,245.752 231.300 C 247.305 228.800,249.013 227.927,249.815 229.225 C 249.960 229.458,250.465 229.818,250.939 230.024 C 251.412 230.230,252.070 230.576,252.400 230.794 C 253.274 231.372,263.456 237.295,265.800 238.589 C 267.695 239.636,273.407 242.955,289.085 252.119 C 297.258 256.896,296.853 256.212,294.124 260.634 C 282.293 279.808,266.414 293.387,242.800 304.522 C 242.030 304.885,241.607 305.186,241.859 305.191 C 242.470 305.203,250.627 301.248,254.412 299.105 C 268.056 291.379,281.656 279.339,289.691 267.871 C 292.432 263.958,296.800 257.211,296.800 256.889 C 296.800 256.181,288.861 250.800,287.818 250.800 C 287.731 250.800,284.311 248.820,280.218 246.400 C 276.125 243.980,272.708 242.000,272.626 242.000 C 272.544 242.000,269.803 240.416,266.535 238.480 C 263.267 236.544,260.325 234.838,259.997 234.688 C 259.669 234.539,258.680 233.964,257.800 233.411 C 256.920 232.858,255.930 232.281,255.600 232.129 C 255.270 231.976,253.847 231.150,252.439 230.293 C 248.941 228.164,248.262 227.941,247.304 228.612 M173.200 250.213 C 173.200 250.981,184.712 255.227,186.585 255.150 C 187.658 255.106,187.613 255.067,186.200 254.815 C 184.204 254.459,180.328 253.199,179.820 252.742 C 179.611 252.554,179.161 252.399,178.820 252.398 C 178.479 252.398,177.120 251.858,175.800 251.200 C 173.189 249.898,173.200 249.902,173.200 250.213 M209.000 255.415 C 207.446 255.953,207.440 255.961,208.800 255.714 C 209.570 255.574,210.920 255.334,211.800 255.180 L 213.400 254.900 212.000 254.881 C 211.230 254.870,209.880 255.111,209.000 255.415 M188.600 255.600 C 189.040 255.789,189.670 255.944,190.000 255.944 C 190.378 255.944,190.304 255.817,189.800 255.600 C 189.360 255.411,188.730 255.256,188.400 255.256 C 188.022 255.256,188.096 255.383,188.600 255.600 M192.500 256.294 C 193.545 256.376,195.255 256.376,196.300 256.294 C 197.345 256.212,196.490 256.144,194.400 256.144 C 192.310 256.144,191.455 256.212,192.500 256.294 M201.700 256.294 C 202.745 256.376,204.455 256.376,205.500 256.294 C 206.545 256.212,205.690 256.144,203.600 256.144 C 201.510 256.144,200.655 256.212,201.700 256.294 M144.275 299.398 C 145.532 300.278,153.259 304.075,153.435 303.899 C 153.518 303.816,152.284 303.130,150.693 302.375 C 149.102 301.620,146.937 300.507,145.882 299.901 C 143.818 298.716,142.884 298.423,144.275 299.398 M154.624 304.587 C 155.051 304.910,155.670 305.179,156.000 305.185 C 156.330 305.190,156.084 304.926,155.454 304.598 C 153.995 303.837,153.625 303.832,154.624 304.587 M157.600 305.800 C 158.150 306.114,158.870 306.371,159.200 306.370 C 159.530 306.369,159.194 306.106,158.454 305.784 C 156.751 305.045,156.294 305.053,157.600 305.800 M240.000 305.566 C 239.670 305.753,237.651 306.503,235.512 307.232 C 233.374 307.961,231.696 308.630,231.784 308.717 C 231.871 308.805,233.621 308.296,235.672 307.586 C 239.344 306.315,241.783 305.236,241.000 305.228 C 240.780 305.226,240.330 305.378,240.000 305.566 M160.800 307.000 C 161.350 307.314,162.070 307.571,162.400 307.570 C 162.730 307.569,162.394 307.306,161.654 306.984 C 159.951 306.245,159.494 306.253,160.800 307.000 M164.346 308.216 C 165.086 308.537,165.986 308.792,166.346 308.782 C 166.706 308.773,166.280 308.505,165.400 308.188 C 163.327 307.442,162.606 307.460,164.346 308.216 M168.346 309.416 C 169.086 309.737,169.986 309.986,170.346 309.970 C 170.706 309.953,170.370 309.697,169.600 309.400 C 167.705 308.670,166.659 308.683,168.346 309.416 M228.200 309.376 C 225.884 310.118,222.868 310.874,220.800 311.230 L 219.000 311.541 220.800 311.437 C 222.632 311.331,224.707 310.859,229.000 309.574 C 230.320 309.178,231.040 308.857,230.600 308.859 C 230.160 308.861,229.080 309.094,228.200 309.376 M173.000 310.609 C 175.522 311.310,176.230 311.305,174.400 310.600 C 173.630 310.303,172.550 310.059,172.000 310.057 C 171.421 310.055,171.842 310.288,173.000 310.609 M176.705 311.483 C 177.202 311.579,177.922 311.575,178.305 311.475 C 178.687 311.375,178.280 311.296,177.400 311.301 C 176.520 311.305,176.207 311.387,176.705 311.483 M180.000 312.000 C 180.550 312.176,181.360 312.320,181.800 312.320 C 182.433 312.320,182.392 312.254,181.600 312.000 C 181.050 311.824,180.240 311.680,179.800 311.680 C 179.167 311.680,179.208 311.746,180.000 312.000 M216.400 312.000 C 215.608 312.254,215.567 312.320,216.200 312.320 C 216.640 312.320,217.450 312.176,218.000 312.000 C 218.792 311.746,218.833 311.680,218.200 311.680 C 217.760 311.680,216.950 311.824,216.400 312.000 M183.891 312.689 C 184.601 312.777,185.861 312.779,186.691 312.692 C 187.521 312.605,186.940 312.533,185.400 312.531 C 183.860 312.529,183.181 312.600,183.891 312.689 M211.091 312.689 C 211.801 312.777,213.061 312.779,213.891 312.692 C 214.721 312.605,214.140 312.533,212.600 312.531 C 211.060 312.529,210.381 312.600,211.091 312.689 M189.600 313.224 C 190.370 313.440,194.600 313.617,199.000 313.617 C 203.400 313.617,207.630 313.440,208.400 313.224 C 209.529 312.907,209.298 312.877,207.200 313.072 C 203.896 313.378,194.201 313.374,190.800 313.066 C 188.693 312.876,188.466 312.905,189.600 313.224 " stroke="none" fill="#ae78bc" fill-rule="evenodd"></path><path id="path3" d="M184.600 89.462 C 177.356 90.738,172.836 91.658,170.000 92.432 C 168.350 92.883,166.319 93.422,165.486 93.631 C 164.654 93.839,163.664 94.172,163.286 94.370 C 162.909 94.569,160.980 95.314,159.000 96.028 C 125.779 107.997,98.361 138.971,89.980 174.000 C 89.796 174.770,89.468 176.120,89.251 177.000 C 86.206 189.366,85.826 205.963,88.261 220.200 C 89.157 225.440,91.656 235.060,92.988 238.400 C 93.295 239.170,94.027 241.060,94.615 242.600 C 103.033 264.662,123.962 288.264,144.800 299.195 C 150.486 302.178,156.007 304.803,156.571 304.791 C 156.807 304.786,156.370 304.485,155.600 304.122 C 139.669 296.610,130.393 290.308,120.050 279.968 C 113.048 272.969,104.928 262.319,100.861 254.800 C 98.585 250.594,96.495 246.169,95.381 243.200 C 95.092 242.430,94.471 240.810,94.002 239.600 C 89.289 227.455,86.348 208.964,87.259 197.200 C 88.157 185.610,88.828 180.183,89.807 176.600 C 90.108 175.500,90.647 173.430,91.005 172.000 C 91.650 169.428,92.776 165.927,94.639 160.708 C 102.268 139.330,120.593 117.596,141.591 105.021 C 149.878 100.058,167.131 92.800,170.640 92.800 C 171.043 92.800,172.099 92.547,172.987 92.238 C 174.500 91.712,176.605 91.320,186.023 89.812 C 195.713 88.261,213.509 89.300,224.600 92.064 C 225.480 92.284,226.920 92.602,227.800 92.772 C 228.680 92.942,229.850 93.264,230.400 93.489 C 230.950 93.713,232.480 94.220,233.800 94.615 C 236.171 95.324,239.008 96.373,241.460 97.448 C 242.154 97.752,242.839 98.000,242.983 98.000 C 243.643 98.000,251.501 102.069,256.225 104.857 C 269.655 112.782,281.247 123.487,290.382 136.400 C 295.659 143.859,295.892 144.579,293.478 145.987 C 290.129 147.941,280.451 153.522,279.234 154.200 C 277.891 154.950,273.451 157.513,261.022 164.713 C 258.175 166.362,254.845 168.257,253.622 168.923 C 252.400 169.589,250.729 170.554,249.908 171.067 C 247.628 172.493,247.211 172.311,245.000 168.927 C 237.888 158.042,221.680 147.538,209.400 145.855 C 208.520 145.734,206.630 145.451,205.200 145.226 C 198.166 144.118,188.221 145.291,180.000 148.199 C 151.939 158.125,136.261 189.980,145.646 218.000 C 147.133 222.440,147.575 223.504,149.371 226.965 C 154.511 236.874,162.798 245.377,172.163 250.352 C 173.463 251.042,174.589 251.544,174.667 251.467 C 174.744 251.389,173.771 250.781,172.504 250.115 C 161.530 244.344,151.468 232.883,147.390 221.511 C 144.295 212.880,143.824 210.152,143.811 200.800 C 143.799 192.137,144.665 186.656,146.811 181.800 C 147.005 181.360,147.621 179.884,148.179 178.519 C 153.907 164.518,170.095 150.412,183.631 147.627 C 184.418 147.465,185.278 147.199,185.543 147.035 C 185.808 146.871,188.404 146.395,191.312 145.976 C 211.725 143.037,233.940 152.758,244.604 169.295 C 247.304 173.482,246.786 173.556,256.937 167.535 C 259.103 166.251,260.939 165.200,261.019 165.200 C 261.098 165.200,263.736 163.702,266.882 161.871 C 277.667 155.593,283.933 151.972,285.066 151.364 C 285.690 151.029,286.740 150.418,287.400 150.006 C 288.060 149.593,289.492 148.772,290.582 148.181 C 296.927 144.741,296.850 145.111,292.547 138.699 C 280.603 120.899,264.228 107.024,245.000 98.412 C 243.460 97.722,241.840 97.010,241.400 96.829 C 240.960 96.648,240.060 96.277,239.400 96.005 C 233.197 93.450,223.105 90.901,213.318 89.418 C 207.940 88.604,189.309 88.632,184.600 89.462 M299.075 164.300 C 298.980 164.465,298.590 166.400,298.209 168.600 C 296.401 179.024,297.056 178.141,290.934 178.400 L 286.200 178.600 286.200 183.000 L 286.200 187.400 290.269 187.600 C 295.057 187.835,295.014 187.808,294.457 190.278 C 294.219 191.335,293.903 193.100,293.755 194.200 C 292.526 203.314,292.336 203.586,287.180 203.594 C 282.400 203.602,282.400 203.601,282.400 208.231 C 282.400 212.675,282.447 212.727,286.619 212.882 L 289.800 213.000 289.926 214.763 C 289.995 215.733,289.783 217.803,289.453 219.363 C 287.738 227.488,287.783 227.585,293.251 227.594 C 297.759 227.601,297.722 227.628,298.364 223.800 C 300.428 211.501,299.330 212.800,307.662 212.800 C 315.750 212.800,315.205 212.238,313.974 219.311 C 313.467 222.220,313.041 225.230,313.027 226.000 L 313.000 227.400 316.800 227.517 C 322.849 227.704,322.053 228.759,323.829 218.203 C 324.743 212.774,324.713 212.800,330.129 212.800 C 335.683 212.800,335.600 212.870,335.600 208.200 C 335.600 203.614,335.586 203.600,330.907 203.600 C 325.995 203.600,326.190 204.428,328.280 192.400 C 329.145 187.421,328.875 187.646,334.138 187.513 L 338.600 187.400 338.600 183.000 L 338.600 178.600 335.241 178.400 C 331.001 178.147,330.858 177.968,331.524 173.724 C 333.215 162.940,333.578 164.000,328.192 164.000 L 323.959 164.000 323.429 165.300 C 323.137 166.015,322.781 167.500,322.638 168.600 C 321.322 178.713,321.615 178.400,313.450 178.400 C 305.868 178.400,306.001 178.499,306.936 173.543 C 308.934 162.949,309.297 164.000,303.636 164.000 C 301.222 164.000,299.170 164.135,299.075 164.300 M307.417 167.500 C 307.265 169.205,306.884 171.616,306.570 172.858 C 305.106 178.655,305.283 178.800,313.831 178.800 C 321.841 178.800,321.277 179.111,322.180 174.200 C 322.544 172.220,323.148 169.250,323.521 167.600 L 324.200 164.600 327.964 164.484 C 332.500 164.345,332.555 164.388,331.999 167.639 C 330.004 179.309,329.864 178.724,334.706 178.885 L 338.200 179.000 338.200 183.000 L 338.200 187.000 333.738 187.113 C 328.456 187.246,328.744 186.997,327.838 192.200 C 327.455 194.400,326.885 197.396,326.571 198.857 C 325.513 203.781,325.629 203.924,330.822 204.084 L 334.600 204.200 334.600 208.200 L 334.600 212.200 329.684 212.400 C 324.303 212.619,324.178 212.678,323.804 215.200 C 323.582 216.692,322.457 223.270,322.025 225.600 L 321.766 227.000 317.818 227.115 C 313.248 227.249,313.143 227.191,313.601 224.800 C 314.772 218.676,315.264 215.227,315.141 214.000 L 315.000 212.600 307.600 212.600 L 300.200 212.600 299.543 214.600 C 299.182 215.700,298.758 217.770,298.600 219.200 C 297.751 226.917,297.497 227.262,292.764 227.116 L 289.000 227.000 289.125 224.800 C 289.194 223.590,289.421 221.943,289.630 221.139 C 290.409 218.141,290.816 213.501,290.349 212.939 C 290.045 212.572,288.912 212.400,286.800 212.400 C 282.847 212.400,282.735 212.267,282.884 207.740 L 283.000 204.200 287.394 204.086 C 292.989 203.940,292.525 204.582,294.255 194.600 C 295.630 186.672,295.973 187.277,290.000 187.100 L 286.600 187.000 286.600 183.000 L 286.600 179.000 291.249 178.888 C 296.921 178.751,297.057 178.648,297.808 173.924 C 298.674 168.479,299.211 165.431,299.398 164.900 C 299.524 164.544,300.748 164.400,303.634 164.400 L 307.694 164.400 307.417 167.500 M304.812 187.312 C 303.979 187.733,303.746 188.282,303.325 190.806 C 303.051 192.453,302.526 195.510,302.159 197.600 C 301.792 199.690,301.471 201.940,301.446 202.600 L 301.400 203.800 309.044 203.908 C 318.401 204.041,317.349 204.959,318.798 195.400 C 319.031 193.860,319.397 191.832,319.611 190.894 C 320.216 188.243,320.109 187.622,318.974 187.190 C 317.434 186.605,306.015 186.703,304.812 187.312 M319.346 187.913 C 319.453 188.086,319.392 189.031,319.211 190.013 C 318.917 191.609,318.093 196.565,317.384 201.000 C 316.964 203.627,317.050 203.600,309.151 203.600 C 300.846 203.600,301.592 204.217,302.616 198.200 C 302.952 196.220,303.409 193.430,303.631 192.000 C 304.367 187.248,303.701 187.600,311.968 187.600 C 315.920 187.600,319.240 187.741,319.346 187.913 M247.141 229.500 C 246.821 229.885,246.047 231.010,245.421 232.000 C 241.200 238.681,232.090 246.844,224.698 250.571 C 223.871 250.988,223.270 251.404,223.363 251.496 C 223.597 251.731,227.497 249.519,231.132 247.090 C 235.254 244.335,242.887 236.614,245.569 232.485 C 248.003 228.739,247.861 228.800,250.462 230.400 C 251.534 231.060,252.483 231.600,252.569 231.600 C 252.730 231.600,267.315 240.080,268.400 240.804 C 268.730 241.025,269.270 241.328,269.600 241.477 C 269.930 241.627,272.450 243.087,275.200 244.721 C 277.950 246.356,281.010 248.135,282.000 248.675 C 282.990 249.214,284.340 250.001,285.000 250.424 C 285.660 250.846,286.470 251.311,286.800 251.457 C 288.720 252.308,295.600 256.664,295.600 257.028 C 295.600 257.452,294.717 258.900,291.473 263.800 C 285.030 273.531,274.048 284.809,264.259 291.748 C 260.721 294.256,258.896 295.865,261.500 294.181 C 268.696 289.526,280.632 278.572,286.540 271.200 C 289.869 267.046,296.000 257.914,296.000 257.110 C 296.000 256.553,294.799 255.200,294.305 255.200 C 294.103 255.200,282.024 248.247,280.400 247.195 C 280.070 246.982,278.990 246.374,278.000 245.844 C 277.010 245.314,273.438 243.243,270.062 241.240 C 266.686 239.238,263.867 237.600,263.799 237.600 C 263.730 237.600,260.310 235.620,256.200 233.200 C 248.223 228.504,248.035 228.427,247.141 229.500 M175.811 252.148 C 178.326 253.894,189.738 256.823,193.666 256.731 L 196.600 256.662 193.200 256.395 C 188.137 255.997,177.612 253.243,176.220 251.952 C 176.011 251.759,175.656 251.600,175.431 251.600 C 175.206 251.600,175.377 251.847,175.811 252.148 M221.855 251.910 C 221.025 253.253,208.459 256.257,201.600 256.752 L 196.600 257.113 202.000 256.927 C 204.970 256.824,208.300 256.503,209.400 256.213 C 210.500 255.924,212.173 255.574,213.117 255.436 C 214.062 255.298,215.142 255.023,215.517 254.825 C 215.893 254.626,217.370 254.059,218.800 253.563 C 221.385 252.667,223.402 251.600,222.513 251.600 C 222.257 251.600,221.961 251.740,221.855 251.910 M258.393 295.734 C 254.452 298.377,241.636 304.800,240.302 304.800 C 240.004 304.800,239.589 304.964,239.380 305.165 C 239.171 305.366,237.240 306.111,235.088 306.820 C 232.936 307.529,231.257 308.190,231.356 308.290 C 231.568 308.501,236.333 306.894,241.282 304.942 C 247.616 302.444,261.643 294.800,259.893 294.800 C 259.834 294.800,259.159 295.220,258.393 295.734 M157.724 305.245 C 158.641 305.779,166.062 308.405,166.599 308.386 C 167.328 308.360,165.017 307.229,164.200 307.212 C 163.760 307.203,162.917 306.943,162.327 306.635 C 161.737 306.327,160.704 305.955,160.032 305.807 C 159.359 305.659,158.706 305.372,158.581 305.169 C 158.455 304.966,158.048 304.805,157.676 304.812 C 157.070 304.823,157.075 304.868,157.724 305.245 M168.800 309.021 C 169.790 309.333,170.780 309.577,171.000 309.563 C 171.700 309.521,168.634 308.461,167.800 308.457 C 167.360 308.455,167.810 308.709,168.800 309.021 M228.000 309.000 C 226.109 309.728,227.382 309.739,229.400 309.012 C 230.280 308.695,230.640 308.441,230.200 308.448 C 229.760 308.455,228.770 308.703,228.000 309.000 M173.400 310.209 C 175.914 310.907,176.555 310.898,175.000 310.186 C 174.340 309.883,173.260 309.640,172.600 309.645 C 171.638 309.652,171.797 309.764,173.400 310.209 M223.256 310.059 C 221.030 310.700,222.113 310.859,224.440 310.233 C 225.628 309.914,226.150 309.657,225.600 309.662 C 225.050 309.668,223.995 309.846,223.256 310.059 M177.100 311.082 C 177.595 311.178,178.405 311.178,178.900 311.082 C 179.395 310.987,178.990 310.909,178.000 310.909 C 177.010 310.909,176.605 310.987,177.100 311.082 M216.400 311.386 C 210.041 312.887,189.597 312.901,181.000 311.411 L 179.800 311.203 181.000 311.626 C 186.104 313.426,206.086 313.519,216.600 311.791 C 221.792 310.938,221.967 310.894,220.200 310.880 C 219.320 310.873,217.610 311.100,216.400 311.386 " stroke="none" fill="#c598d2" fill-rule="evenodd"></path><path id="path4" d="M196.900 88.697 C 198.605 88.772,201.395 88.772,203.100 88.697 C 204.805 88.622,203.410 88.561,200.000 88.561 C 196.590 88.561,195.195 88.622,196.900 88.697 M278.600 121.600 C 279.459 122.480,280.252 123.200,280.362 123.200 C 280.472 123.200,279.859 122.480,279.000 121.600 C 278.141 120.720,277.348 120.000,277.238 120.000 C 277.128 120.000,277.741 120.720,278.600 121.600 M115.978 125.100 L 114.600 126.600 116.100 125.222 C 117.496 123.938,117.784 123.600,117.478 123.600 C 117.412 123.600,116.737 124.275,115.978 125.100 M196.305 145.483 C 196.802 145.579,197.522 145.575,197.905 145.475 C 198.287 145.375,197.880 145.296,197.000 145.301 C 196.120 145.305,195.807 145.387,196.305 145.483 M200.100 145.476 C 200.485 145.576,201.115 145.576,201.500 145.476 C 201.885 145.375,201.570 145.293,200.800 145.293 C 200.030 145.293,199.715 145.375,200.100 145.476 M161.178 160.300 L 159.800 161.800 161.300 160.422 C 162.125 159.663,162.800 158.988,162.800 158.922 C 162.800 158.616,162.462 158.904,161.178 160.300 M301.513 163.895 C 302.676 163.976,304.476 163.976,305.513 163.893 C 306.551 163.811,305.600 163.745,303.400 163.746 C 301.200 163.747,300.351 163.814,301.513 163.895 M326.512 163.895 C 327.564 163.977,329.184 163.976,330.112 163.892 C 331.040 163.808,330.180 163.741,328.200 163.742 C 326.220 163.743,325.460 163.812,326.512 163.895 M288.915 178.296 C 290.188 178.376,292.168 178.375,293.315 178.294 C 294.462 178.214,293.420 178.149,291.000 178.150 C 288.580 178.151,287.642 178.216,288.915 178.296 M310.500 178.297 C 312.205 178.372,314.995 178.372,316.700 178.297 C 318.405 178.222,317.010 178.161,313.600 178.161 C 310.190 178.161,308.795 178.222,310.500 178.297 M332.800 178.248 C 335.116 178.545,338.712 178.577,338.539 178.300 C 338.437 178.135,336.878 178.027,335.076 178.060 C 333.274 178.093,332.250 178.178,332.800 178.248 M285.746 183.000 C 285.747 185.200,285.814 186.049,285.895 184.887 C 285.976 183.724,285.976 181.924,285.893 180.887 C 285.811 179.849,285.745 180.800,285.746 183.000 M86.893 192.000 C 86.893 192.770,86.975 193.085,87.076 192.700 C 87.176 192.315,87.176 191.685,87.076 191.300 C 86.975 190.915,86.893 191.230,86.893 192.000 M143.720 196.800 C 143.720 198.010,143.795 198.505,143.887 197.900 C 143.978 197.295,143.978 196.305,143.887 195.700 C 143.795 195.095,143.720 195.590,143.720 196.800 M86.501 196.600 C 86.505 197.480,86.587 197.793,86.683 197.295 C 86.779 196.798,86.775 196.078,86.675 195.695 C 86.575 195.313,86.496 195.720,86.501 196.600 M143.714 204.600 C 143.717 205.700,143.795 206.103,143.887 205.495 C 143.979 204.886,143.977 203.986,143.882 203.495 C 143.787 203.003,143.711 203.500,143.714 204.600 M327.155 203.317 C 327.331 203.492,328.988 203.580,330.837 203.514 L 334.200 203.394 330.518 203.197 C 328.493 203.089,326.980 203.143,327.155 203.317 M285.513 203.495 C 286.676 203.576,288.476 203.576,289.513 203.493 C 290.551 203.411,289.600 203.345,287.400 203.346 C 285.200 203.347,284.351 203.414,285.513 203.495 M86.501 207.400 C 86.505 208.280,86.587 208.593,86.683 208.095 C 86.779 207.598,86.775 206.878,86.675 206.495 C 86.575 206.113,86.496 206.520,86.501 207.400 M313.400 213.072 C 313.840 213.193,314.349 213.497,314.530 213.746 C 314.749 214.046,314.806 213.996,314.699 213.600 C 314.610 213.270,314.101 212.967,313.569 212.926 C 312.805 212.868,312.769 212.899,313.400 213.072 M87.301 214.600 C 87.305 215.480,87.387 215.793,87.483 215.295 C 87.579 214.798,87.575 214.078,87.475 213.695 C 87.375 213.313,87.296 213.720,87.301 214.600 M196.900 256.676 C 197.285 256.776,197.915 256.776,198.300 256.676 C 198.685 256.575,198.370 256.493,197.600 256.493 C 196.830 256.493,196.515 256.575,196.900 256.676 M199.700 256.676 C 200.085 256.776,200.715 256.776,201.100 256.676 C 201.485 256.575,201.170 256.493,200.400 256.493 C 199.630 256.493,199.315 256.575,199.700 256.676 M278.378 280.300 L 277.000 281.800 278.500 280.422 C 279.325 279.663,280.000 278.988,280.000 278.922 C 280.000 278.616,279.662 278.904,278.378 280.300 M198.300 313.482 C 198.795 313.578,199.605 313.578,200.100 313.482 C 200.595 313.387,200.190 313.309,199.200 313.309 C 198.210 313.309,197.805 313.387,198.300 313.482 " stroke="none" fill="#bc90cc" fill-rule="evenodd"></path></g></svg>