<svg id="svg" xmlns="http://www.w3.org/2000/svg" xmlns:xlink="http://www.w3.org/1999/xlink" width="400" height="731.6666666666666" viewBox="0, 0, 400,731.6666666666666"><g id="svgg"><path id="path0" d="M337.333 271.341 C 324.896 272.636,314.409 277.613,314.730 282.068 L 314.833 283.500 316.667 283.471 C 317.675 283.455,320.600 282.885,323.167 282.203 C 336.042 278.785,347.581 282.273,355.370 291.937 C 371.243 311.633,354.048 339.323,311.242 362.999 C 305.268 366.303,303.649 367.710,303.594 369.648 C 303.526 372.039,304.324 372.114,310.704 370.313 C 357.397 357.132,384.937 333.955,384.993 307.794 C 385.042 285.309,363.251 268.641,337.333 271.341 M135.069 276.008 C 113.541 277.470,91.210 283.275,70.333 292.836 C 59.192 297.939,55.713 301.810,57.793 306.789 C 65.219 324.560,191.353 328.488,267.739 313.327 C 282.925 310.313,284.510 309.828,290.043 306.492 C 292.678 304.904,297.730 302.181,301.271 300.441 C 307.870 297.199,308.553 296.667,308.008 295.183 C 307.520 293.855,307.001 293.851,299.293 295.109 C 252.736 302.710,212.193 306.260,164.833 306.882 C 125.163 307.403,96.333 304.056,96.333 298.929 C 96.333 295.271,114.931 287.667,140.641 280.812 C 146.087 279.360,147.000 278.908,147.000 277.667 C 147.000 275.765,144.258 275.384,135.069 276.008 M119.333 333.633 C 92.277 343.545,88.724 356.670,110.701 365.516 C 143.390 378.675,212.715 378.586,270.167 365.311 C 286.923 361.440,290.225 360.205,289.472 358.092 C 289.120 357.104,289.075 357.076,285.408 355.536 C 281.698 353.977,276.272 350.705,272.959 348.028 C 267.989 344.011,269.545 344.184,257.667 346.329 C 214.660 354.097,183.026 355.446,140.728 351.315 C 120.385 349.328,115.724 345.484,123.714 337.285 C 128.213 332.668,126.307 331.079,119.333 333.633 M130.500 387.695 C 96.200 399.332,108.959 419.605,155.439 427.322 C 195.220 433.926,240.228 429.169,276.603 414.517 C 282.810 412.016,282.658 410.682,275.833 407.787 C 269.684 405.179,262.163 401.499,257.500 398.817 C 252.671 396.039,252.899 396.057,243.667 397.755 C 213.379 403.324,192.302 404.509,165.500 402.151 C 136.541 399.604,129.174 396.922,135.371 391.185 C 140.261 386.658,138.107 385.114,130.500 387.695 M79.333 422.028 C 49.855 424.988,18.469 440.176,17.727 451.840 C 17.069 462.162,31.312 466.553,84.667 472.478 C 103.568 474.576,119.802 475.863,142.000 477.021 C 227.251 481.469,324.395 468.719,354.817 449.089 C 365.860 441.963,366.336 432.955,355.958 427.501 C 351.451 425.133,349.550 426.679,352.215 430.548 C 355.197 434.879,353.213 438.674,345.967 442.491 C 315.632 458.474,177.153 466.521,99.500 456.813 C 75.989 453.874,56.113 448.716,52.988 444.742 C 49.384 440.160,75.200 429.732,93.667 428.310 C 99.225 427.882,99.463 427.804,99.606 426.361 C 99.938 423.005,90.242 420.932,79.333 422.028 M379.798 454.270 C 350.123 483.627,198.577 499.525,93.259 484.330 C 84.957 483.132,84.473 483.116,83.990 484.020 C 82.826 486.194,85.249 487.914,93.096 490.485 C 108.989 495.691,133.488 498.901,171.333 500.738 C 183.020 501.305,227.496 501.301,239.000 500.733 C 327.033 496.380,376.686 481.823,384.199 458.163 C 386.348 451.396,384.424 449.693,379.798 454.270 M31.857 530.524 C 31.384 530.997,31.333 537.607,31.333 598.308 C 31.333 676.964,31.212 681.051,28.650 688.737 C 26.222 696.025,19.862 703.148,10.572 708.987 C 5.826 711.970,5.797 711.836,12.994 720.297 C 20.051 728.594,19.415 728.372,26.500 725.018 C 46.257 715.666,55.898 702.395,58.575 680.869 C 59.405 674.199,59.637 531.352,58.820 530.534 C 58.018 529.733,32.658 529.723,31.857 530.524 M117.333 568.195 C 103.609 569.366,92.397 571.971,82.195 576.360 C 77.937 578.192,78.061 577.471,80.342 587.069 C 82.495 596.129,82.246 595.901,87.854 593.979 C 104.598 588.242,121.800 587.127,130.220 591.233 C 136.256 594.177,138.333 598.901,138.333 609.685 L 138.333 615.581 128.917 615.765 C 91.920 616.486,72.654 630.304,72.669 656.107 C 72.681 677.446,85.226 688.894,108.500 688.805 C 120.481 688.759,129.241 685.807,139.247 678.443 C 142.366 676.147,142.145 675.986,142.841 681.055 C 143.683 687.188,142.621 686.667,154.270 686.667 C 162.037 686.667,163.996 686.576,164.520 686.194 C 165.292 685.629,165.720 612.204,165.014 601.440 C 163.462 577.797,146.163 565.736,117.333 568.195 M328.333 568.220 C 316.520 569.032,305.565 571.489,294.833 575.731 C 289.070 578.009,289.194 577.575,291.516 587.328 C 293.342 594.998,293.205 594.622,294.267 594.888 C 295.200 595.122,295.352 595.086,302.000 593.046 C 321.902 586.938,338.293 587.230,344.848 593.811 C 348.539 597.516,349.314 600.016,349.567 609.043 L 349.750 615.585 340.292 615.755 C 305.123 616.387,286.342 628.444,283.950 651.928 C 282.099 670.098,290.746 683.629,306.671 687.485 C 322.660 691.357,337.829 687.964,351.874 677.375 L 353.248 676.339 353.817 680.253 C 354.492 684.895,354.856 686.207,355.543 686.471 C 357.290 687.141,375.303 686.657,375.814 685.926 C 376.454 685.012,376.610 604.536,375.983 598.737 C 373.640 577.058,356.784 566.262,328.333 568.220 M176.459 570.328 C 175.492 570.719,175.273 571.878,175.795 573.846 C 177.340 579.670,210.209 685.828,210.584 686.203 C 211.148 686.767,240.607 686.901,241.647 686.344 C 241.980 686.166,243.483 683.296,245.007 679.927 C 257.502 652.316,268.308 617.767,275.162 583.518 C 277.445 572.107,277.504 571.674,276.881 570.833 C 276.256 569.989,251.912 569.615,250.333 570.425 C 249.377 570.916,249.452 570.597,247.987 580.333 C 245.621 596.057,241.533 614.342,236.289 632.667 C 234.489 638.954,229.404 654.682,229.045 655.070 C 228.925 655.201,228.093 652.068,227.196 648.108 C 224.616 636.718,204.143 571.010,202.992 570.428 C 202.023 569.937,177.653 569.846,176.459 570.328 M375.524 570.857 C 374.159 572.222,375.236 575.333,377.074 575.333 C 377.600 575.333,377.667 575.685,377.667 578.436 C 377.667 582.356,377.935 582.795,380.333 582.795 C 382.731 582.795,383.000 582.356,383.000 578.436 C 383.000 574.376,383.569 574.417,383.718 578.489 C 383.873 582.717,384.147 582.977,388.167 582.693 C 389.587 582.592,391.994 582.587,393.167 582.682 C 397.390 583.025,397.333 583.107,397.333 576.650 C 397.333 570.394,397.304 570.333,394.310 570.333 C 392.256 570.333,391.000 571.029,391.000 572.167 C 391.000 572.895,390.414 572.779,390.167 572.002 C 389.659 570.401,389.348 570.333,382.500 570.333 C 377.079 570.333,375.964 570.417,375.524 570.857 M138.333 645.793 L 138.333 657.920 136.917 659.077 C 118.362 674.242,98.286 669.982,99.455 651.127 C 100.230 638.620,109.327 633.980,133.583 633.718 L 138.333 633.667 138.333 645.793 M349.667 645.683 L 349.667 657.699 348.750 658.514 C 330.416 674.821,308.014 669.637,310.665 649.700 C 312.182 638.288,321.431 633.951,344.750 633.716 L 349.667 633.667 349.667 645.683 " stroke="none" fill="#5484a4" fill-rule="evenodd"></path><path id="path1" d="M249.454 5.165 C 249.204 5.817,249.386 7.219,250.423 12.667 C 256.296 43.497,245.493 68.850,215.000 95.797 C 208.970 101.126,202.383 106.523,190.333 116.007 C 156.681 142.495,144.090 155.487,138.167 169.833 C 127.803 194.935,141.755 222.786,185.167 263.655 C 201.423 278.959,202.165 279.516,203.352 277.298 C 204.474 275.201,199.219 265.858,187.341 248.833 C 180.323 238.775,175.991 232.190,173.309 227.506 C 154.905 195.366,163.440 169.828,203.333 137.672 C 240.520 107.697,259.857 81.281,264.825 53.667 C 267.819 37.027,262.930 16.481,253.490 6.033 C 252.147 4.547,249.879 4.059,249.454 5.165 M304.833 107.011 C 209.090 136.208,176.800 186.273,219.629 239.121 C 225.150 245.935,226.967 248.421,228.313 251.005 C 234.834 263.518,231.777 277.175,219.608 289.892 C 215.063 294.642,216.655 297.184,222.147 293.946 C 240.027 283.404,253.714 269.037,257.832 256.486 C 262.211 243.140,260.035 233.268,249.460 218.500 C 237.077 201.208,233.313 194.077,232.350 186.083 C 230.013 166.690,253.655 143.556,308.980 111.101 C 313.656 108.357,314.240 107.726,313.629 106.074 C 313.198 104.909,310.936 105.150,304.833 107.011 " stroke="none" fill="#fb9b14" fill-rule="evenodd"></path></g></svg>